<?xml version="1.0" standalone="no"?><!DOCTYPE svg PUBLIC "-//W3C//DTD SVG 1.1//EN" "http://www.w3.org/Graphics/SVG/1.1/DTD/svg11.dtd"><svg height="1024" node-id="1" sillyvg="true" template-height="1024" template-width="1024" version="1.1" viewBox="0 0 1024 1024" width="1024" xmlns="http://www.w3.org/2000/svg" xmlns:xlink="http://www.w3.org/1999/xlink"><defs node-id="329"><linearGradient gradientUnits="objectBoundingBox" id="linear-gradient" node-id="3" spreadMethod="pad" x1="0.81620437" x2="0.5321332" y1="0.09802454" y2="0.36309093"><stop offset="0" stop-color="#cceafd"></stop><stop offset="1" stop-color="#e3f2ff"></stop></linearGradient><linearGradient gradientUnits="objectBoundingBox" id="linear-gradient-4" node-id="15" spreadMethod="pad" x1="0.36709192" x2="0.38209566" y1="0.23305835" y2="0.68817234"><stop offset="0" stop-color="#a4c5fd"></stop><stop offset="1" stop-color="#daeeff" stop-opacity="0"></stop></linearGradient><linearGradient gradientUnits="objectBoundingBox" id="linear-gradient-5" node-id="18" spreadMethod="pad" x1="0.8882224" x2="0.023005761" y1="0.2080521" y2="0.68717206"><stop offset="0" stop-color="#edf5ff"></stop><stop offset="1" stop-color="#aed9ff"></stop></linearGradient><linearGradient gradientUnits="objectBoundingBox" id="linearGradient1" node-id="349" spreadMethod="pad" x1="0.024" x2="1" y1="0.117" y2="0.772"><stop offset="0" stop-color="#dcf5ff"></stop><stop offset="1" stop-color="#91c2fa"></stop></linearGradient><linearGradient gradientUnits="objectBoundingBox" id="linearGradient2" node-id="356" spreadMethod="pad" x1="0.5" x2="0.5" y1="0" y2="1"><stop offset="0" stop-color="#acc8fb"></stop><stop offset="0.292" stop-color="#bed1f8"></stop><stop offset="1" stop-color="#004ce6"></stop></linearGradient><linearGradient gradientUnits="objectBoundingBox" id="linearGradient3" node-id="365" spreadMethod="pad" x1="0.5" x2="0.5" y1="0" y2="1"><stop offset="0" stop-color="#e6f3ff"></stop><stop offset="1" stop-color="#d8e3fa"></stop></linearGradient><linearGradient gradientUnits="objectBoundingBox" id="linear-gradient-7" node-id="38" spreadMethod="pad" x1="0.5" x2="0.5" y1="0" y2="1"><stop offset="0" stop-color="#acc8fb"></stop><stop offset="0.292" stop-color="#bed1f8"></stop><stop offset="1" stop-color="#004ce6"></stop></linearGradient><linearGradient gradientUnits="objectBoundingBox" id="linear-gradient-8" node-id="49" spreadMethod="pad" x1="0.5" x2="0.5" y1="0" y2="1"><stop offset="0" stop-color="#e6f3ff"></stop><stop offset="1" stop-color="#d8e3fa"></stop></linearGradient><linearGradient gradientUnits="objectBoundingBox" id="linear-gradient-11" node-id="157" spreadMethod="pad" x1="0.5" x2="0.5" y1="0" y2="1"><stop offset="0" stop-color="#7ab2fa"></stop><stop offset="1" stop-color="#266cf4"></stop></linearGradient><linearGradient gradientUnits="objectBoundingBox" id="linear-gradient-12" node-id="181" spreadMethod="pad" x1="0.12003005" x2="0.9352342" y1="0.8092026" y2="0.53613424"><stop offset="0" stop-color="#e0f2fb"></stop><stop offset="0.468" stop-color="#eef5fc"></stop><stop offset="1" stop-color="#cae3fc"></stop></linearGradient><linearGradient gradientUnits="objectBoundingBox" id="linear-gradient-13" node-id="187" spreadMethod="pad" x1="0.4401102" x2="0.44911245" y1="0.64316106" y2="0.94123566"><stop offset="0" stop-color="#e3f5ff" stop-opacity="0"></stop><stop offset="1" stop-color="#b5d9fc"></stop></linearGradient><linearGradient gradientUnits="objectBoundingBox" id="linear-gradient-14" node-id="190" spreadMethod="pad" x1="0.058014523" x2="0.90622693" y1="0.659165" y2="0.04401102"><stop offset="0" stop-color="#aed9ff"></stop><stop offset="1" stop-color="#edf5ff"></stop></linearGradient><linearGradient gradientUnits="objectBoundingBox" id="linear-gradient-6" node-id="21" spreadMethod="pad" x1="0.024" x2="1" y1="0.117" y2="0.772"><stop offset="0" stop-color="#dcf5ff"></stop><stop offset="1" stop-color="#91c2fa"></stop></linearGradient><linearGradient gradientUnits="objectBoundingBox" id="linear-gradient-16" node-id="200" spreadMethod="pad" x1="0.257" x2="0.73" y1="0.098" y2="0.932"><stop offset="0" stop-color="#72c4ff"></stop><stop offset="1" stop-color="#3416f8"></stop></linearGradient><radialGradient cx="0.5" cy="0.5" fx="0.5" fy="0.5" gradientUnits="objectBoundingBox" id="radial-gradient" node-id="9" r="0.537" rev="1" spreadMethod="pad"><stop offset="0" stop-color="#117fec" stop-opacity="0.341"></stop><stop offset="0.67" stop-color="#2b93ee" stop-opacity="0.129"></stop><stop offset="1" stop-color="#ffffff" stop-opacity="0"></stop></radialGradient><filter filterUnits="objectBoundingBox" height="147.15851" id="减去_19" node-id="24" width="703.7268" x="150.41513" y="208.69174"><feOffset color-interpolation-filters="linearRGB" dx="0" dy="0" in="SourceGraphic" result="result1"></feOffset><feGaussianBlur color-interpolation-filters="linearRGB" in="result1" result="blur" stdDeviation="3 3"></feGaussianBlur><feFlood color-interpolation-filters="linearRGB" flood-color="#ffffff" result="color"></feFlood><feComposite color-interpolation-filters="linearRGB" in="SourceGraphic" in2="blur" operator="out" result="result4"></feComposite><feComposite color-interpolation-filters="linearRGB" in="color" in2="result4" operator="in" result="result5"></feComposite><feComposite color-interpolation-filters="linearRGB" in="result5" in2="SourceGraphic" operator="in" result="result6"></feComposite></filter><filter filterUnits="objectBoundingBox" height="528" id="矩形_2229" node-id="31" width="588" x="182.44" y="212.57999"><feOffset color-interpolation-filters="linearRGB" dx="0" dy="0" in="SourceGraphic" result="result1"></feOffset><feGaussianBlur color-interpolation-filters="linearRGB" in="result1" result="blur-2" stdDeviation="7.5 7.5"></feGaussianBlur><feFlood color-interpolation-filters="linearRGB" flood-color="#ffffff" flood-opacity="0.588" result="color-2"></feFlood><feComposite color-interpolation-filters="linearRGB" in="SourceGraphic" in2="blur-2" operator="out" result="result4"></feComposite><feComposite color-interpolation-filters="linearRGB" in="color-2" in2="result4" operator="in" result="result5"></feComposite><feComposite color-interpolation-filters="linearRGB" in="result5" in2="SourceGraphic" operator="in" result="result6"></feComposite></filter><filter filterUnits="objectBoundingBox" height="639.673" id="矩形_2244" node-id="42" width="597.94604" x="293.98117" y="55.80392"><feOffset color-interpolation-filters="linearRGB" dx="0" dy="0" in="SourceGraphic" result="result1"></feOffset><feGaussianBlur color-interpolation-filters="linearRGB" in="result1" result="blur-3" stdDeviation="3 3"></feGaussianBlur><feFlood color-interpolation-filters="linearRGB" flood-color="#ffffff" result="color-3"></feFlood><feComposite color-interpolation-filters="linearRGB" in="SourceGraphic" in2="blur-3" operator="out" result="result4"></feComposite><feComposite color-interpolation-filters="linearRGB" in="color-3" in2="result4" operator="in" result="result5"></feComposite><feComposite color-interpolation-filters="linearRGB" in="result5" in2="SourceGraphic" operator="in" result="result6"></feComposite></filter><filter filterUnits="objectBoundingBox" height="639.673" id="矩形_2245" node-id="52" width="597.94604" x="285.99118" y="49.493923"><feOffset color-interpolation-filters="linearRGB" dx="0" dy="0" in="SourceGraphic" result="result1"></feOffset><feGaussianBlur color-interpolation-filters="linearRGB" in="result1" result="blur-4" stdDeviation="10 10"></feGaussianBlur><feFlood color-interpolation-filters="linearRGB" flood-color="#ffffff" result="color-4"></feFlood><feComposite color-interpolation-filters="linearRGB" in="SourceGraphic" in2="blur-4" operator="out" result="result4"></feComposite><feComposite color-interpolation-filters="linearRGB" in="color-4" in2="result4" operator="in" result="result5"></feComposite><feComposite color-interpolation-filters="linearRGB" in="result5" in2="SourceGraphic" operator="in" result="result6"></feComposite></filter><filter filterUnits="objectBoundingBox" height="90.72299" id="矩形_2246" node-id="59" width="140.13599" x="642.359" y="223.198"><feOffset color-interpolation-filters="linearRGB" dx="0" dy="2" in="SourceGraphic" result="result1"></feOffset><feGaussianBlur color-interpolation-filters="linearRGB" in="result1" result="blur-5" stdDeviation="2 2"></feGaussianBlur><feFlood color-interpolation-filters="linearRGB" flood-color="#ffffff" result="color-5"></feFlood><feComposite color-interpolation-filters="linearRGB" in="SourceGraphic" in2="blur-5" operator="out" result="result4"></feComposite><feComposite color-interpolation-filters="linearRGB" in="color-5" in2="result4" operator="in" result="result5"></feComposite><feComposite color-interpolation-filters="linearRGB" in="result5" in2="SourceGraphic" operator="in" result="result6"></feComposite></filter><filter filterUnits="objectBoundingBox" height="150.22299" id="矩形_2250" node-id="66" width="243.193" x="509.302" y="212.587"><feOffset color-interpolation-filters="linearRGB" dx="0" dy="2" in="SourceGraphic" result="result1"></feOffset><feGaussianBlur color-interpolation-filters="linearRGB" in="result1" result="blur-6" stdDeviation="2 2"></feGaussianBlur><feFlood color-interpolation-filters="linearRGB" flood-color="#ffffff" result="color-6"></feFlood><feComposite color-interpolation-filters="linearRGB" in="SourceGraphic" in2="blur-6" operator="out" result="result4"></feComposite><feComposite color-interpolation-filters="linearRGB" in="color-6" in2="result4" operator="in" result="result5"></feComposite><feComposite color-interpolation-filters="linearRGB" in="result5" in2="SourceGraphic" operator="in" result="result6"></feComposite></filter><filter filterUnits="objectBoundingBox" height="150.22299" id="矩形_2265" node-id="73" width="243.193" x="482.802" y="261.559"><feOffset color-interpolation-filters="linearRGB" dx="0" dy="2" in="SourceGraphic" result="result1"></feOffset><feGaussianBlur color-interpolation-filters="linearRGB" in="result1" result="blur-7" stdDeviation="2 2"></feGaussianBlur><feFlood color-interpolation-filters="linearRGB" flood-color="#ffffff" result="color-7"></feFlood><feComposite color-interpolation-filters="linearRGB" in="SourceGraphic" in2="blur-7" operator="out" result="result4"></feComposite><feComposite color-interpolation-filters="linearRGB" in="color-7" in2="result4" operator="in" result="result5"></feComposite><feComposite color-interpolation-filters="linearRGB" in="result5" in2="SourceGraphic" operator="in" result="result6"></feComposite></filter><filter filterUnits="objectBoundingBox" height="150.22299" id="矩形_2266" node-id="80" width="243.193" x="460.302" y="300.53"><feOffset color-interpolation-filters="linearRGB" dx="0" dy="2" in="SourceGraphic" result="result1"></feOffset><feGaussianBlur color-interpolation-filters="linearRGB" in="result1" result="blur-8" stdDeviation="2 2"></feGaussianBlur><feFlood color-interpolation-filters="linearRGB" flood-color="#ffffff" result="color-8"></feFlood><feComposite color-interpolation-filters="linearRGB" in="SourceGraphic" in2="blur-8" operator="out" result="result4"></feComposite><feComposite color-interpolation-filters="linearRGB" in="color-8" in2="result4" operator="in" result="result5"></feComposite><feComposite color-interpolation-filters="linearRGB" in="result5" in2="SourceGraphic" operator="in" result="result6"></feComposite></filter><filter filterUnits="objectBoundingBox" height="53.77501" id="椭圆_705" node-id="87" width="54.14099" x="565.881" y="164.609"><feOffset color-interpolation-filters="linearRGB" dx="0" dy="0" in="SourceGraphic" result="result1"></feOffset><feGaussianBlur color-interpolation-filters="linearRGB" in="result1" result="blur-9" stdDeviation="3 3"></feGaussianBlur><feFlood color-interpolation-filters="linearRGB" flood-color="#ffffff" flood-opacity="0.769" result="color-9"></feFlood><feComposite color-interpolation-filters="linearRGB" in="SourceGraphic" in2="blur-9" operator="out" result="result4"></feComposite><feComposite color-interpolation-filters="linearRGB" in="color-9" in2="result4" operator="in" result="result5"></feComposite><feComposite color-interpolation-filters="linearRGB" in="result5" in2="SourceGraphic" operator="in" result="result6"></feComposite></filter><filter filterUnits="objectBoundingBox" height="61.382996" id="矩形_2252" node-id="94" width="79.31799" x="533.426" y="193.214"><feOffset color-interpolation-filters="linearRGB" dx="0" dy="0" in="SourceGraphic" result="result1"></feOffset><feGaussianBlur color-interpolation-filters="linearRGB" in="result1" result="blur-10" stdDeviation="3 3"></feGaussianBlur><feFlood color-interpolation-filters="linearRGB" flood-color="#ffffff" flood-opacity="0.769" result="color-10"></feFlood><feComposite color-interpolation-filters="linearRGB" in="SourceGraphic" in2="blur-10" operator="out" result="result4"></feComposite><feComposite color-interpolation-filters="linearRGB" in="color-10" in2="result4" operator="in" result="result5"></feComposite><feComposite color-interpolation-filters="linearRGB" in="result5" in2="SourceGraphic" operator="in" result="result6"></feComposite></filter><filter filterUnits="objectBoundingBox" height="510" id="矩形_2244-2" node-id="101" width="396.00006" x="278.69" y="123.58"><feOffset color-interpolation-filters="linearRGB" dx="0" dy="0" in="SourceGraphic" result="result1"></feOffset><feGaussianBlur color-interpolation-filters="linearRGB" in="result1" result="blur-11" stdDeviation="3 3"></feGaussianBlur><feFlood color-interpolation-filters="linearRGB" flood-color="#ffffff" result="color-11"></feFlood><feComposite color-interpolation-filters="linearRGB" in="SourceGraphic" in2="blur-11" operator="out" result="result4"></feComposite><feComposite color-interpolation-filters="linearRGB" in="color-11" in2="result4" operator="in" result="result5"></feComposite><feComposite color-interpolation-filters="linearRGB" in="result5" in2="SourceGraphic" operator="in" result="result6"></feComposite></filter><filter filterUnits="objectBoundingBox" height="510" id="矩形_2245-2" node-id="108" width="396.00006" x="268.69" y="125.08"><feOffset color-interpolation-filters="linearRGB" dx="0" dy="0" in="SourceGraphic" result="result1"></feOffset><feGaussianBlur color-interpolation-filters="linearRGB" in="result1" result="blur-12" stdDeviation="10 10"></feGaussianBlur><feFlood color-interpolation-filters="linearRGB" flood-color="#ffffff" result="color-12"></feFlood><feComposite color-interpolation-filters="linearRGB" in="SourceGraphic" in2="blur-12" operator="out" result="result4"></feComposite><feComposite color-interpolation-filters="linearRGB" in="color-12" in2="result4" operator="in" result="result5"></feComposite><feComposite color-interpolation-filters="linearRGB" in="result5" in2="SourceGraphic" operator="in" result="result6"></feComposite></filter><filter filterUnits="objectBoundingBox" height="17" id="矩形_2246-2" node-id="115" width="152.00003" x="450.692" y="229.579"><feOffset color-interpolation-filters="linearRGB" dx="0" dy="2" in="SourceGraphic" result="result1"></feOffset><feGaussianBlur color-interpolation-filters="linearRGB" in="result1" result="blur-13" stdDeviation="2 2"></feGaussianBlur><feFlood color-interpolation-filters="linearRGB" flood-color="#ffffff" result="color-13"></feFlood><feComposite color-interpolation-filters="linearRGB" in="SourceGraphic" in2="blur-13" operator="out" result="result4"></feComposite><feComposite color-interpolation-filters="linearRGB" in="color-13" in2="result4" operator="in" result="result5"></feComposite><feComposite color-interpolation-filters="linearRGB" in="result5" in2="SourceGraphic" operator="in" result="result6"></feComposite></filter><filter filterUnits="objectBoundingBox" height="17" id="矩形_2250-2" node-id="122" width="271.00003" x="331.692" y="288.579"><feOffset color-interpolation-filters="linearRGB" dx="0" dy="2" in="SourceGraphic" result="result1"></feOffset><feGaussianBlur color-interpolation-filters="linearRGB" in="result1" result="blur-14" stdDeviation="2 2"></feGaussianBlur><feFlood color-interpolation-filters="linearRGB" flood-color="#ffffff" result="color-14"></feFlood><feComposite color-interpolation-filters="linearRGB" in="SourceGraphic" in2="blur-14" operator="out" result="result4"></feComposite><feComposite color-interpolation-filters="linearRGB" in="color-14" in2="result4" operator="in" result="result5"></feComposite><feComposite color-interpolation-filters="linearRGB" in="result5" in2="SourceGraphic" operator="in" result="result6"></feComposite></filter><filter filterUnits="objectBoundingBox" height="17" id="矩形_2265-2" node-id="129" width="271.00003" x="331.692" y="333.579"><feOffset color-interpolation-filters="linearRGB" dx="0" dy="2" in="SourceGraphic" result="result1"></feOffset><feGaussianBlur color-interpolation-filters="linearRGB" in="result1" result="blur-15" stdDeviation="2 2"></feGaussianBlur><feFlood color-interpolation-filters="linearRGB" flood-color="#ffffff" result="color-15"></feFlood><feComposite color-interpolation-filters="linearRGB" in="SourceGraphic" in2="blur-15" operator="out" result="result4"></feComposite><feComposite color-interpolation-filters="linearRGB" in="color-15" in2="result4" operator="in" result="result5"></feComposite><feComposite color-interpolation-filters="linearRGB" in="result5" in2="SourceGraphic" operator="in" result="result6"></feComposite></filter><filter filterUnits="objectBoundingBox" height="17" id="矩形_2266-2" node-id="136" width="271.00003" x="331.692" y="378.579"><feOffset color-interpolation-filters="linearRGB" dx="0" dy="2" in="SourceGraphic" result="result1"></feOffset><feGaussianBlur color-interpolation-filters="linearRGB" in="result1" result="blur-16" stdDeviation="2 2"></feGaussianBlur><feFlood color-interpolation-filters="linearRGB" flood-color="#ffffff" result="color-16"></feFlood><feComposite color-interpolation-filters="linearRGB" in="SourceGraphic" in2="blur-16" operator="out" result="result4"></feComposite><feComposite color-interpolation-filters="linearRGB" in="color-16" in2="result4" operator="in" result="result5"></feComposite><feComposite color-interpolation-filters="linearRGB" in="result5" in2="SourceGraphic" operator="in" result="result6"></feComposite></filter><filter filterUnits="objectBoundingBox" height="39" id="椭圆_705-2" node-id="143" width="40" x="364.692" y="202.579"><feOffset color-interpolation-filters="linearRGB" dx="0" dy="0" in="SourceGraphic" result="result1"></feOffset><feGaussianBlur color-interpolation-filters="linearRGB" in="result1" result="blur-17" stdDeviation="3 3"></feGaussianBlur><feFlood color-interpolation-filters="linearRGB" flood-color="#ffffff" flood-opacity="0.769" result="color-17"></feFlood><feComposite color-interpolation-filters="linearRGB" in="SourceGraphic" in2="blur-17" operator="out" result="result4"></feComposite><feComposite color-interpolation-filters="linearRGB" in="color-17" in2="result4" operator="in" result="result5"></feComposite><feComposite color-interpolation-filters="linearRGB" in="result5" in2="SourceGraphic" operator="in" result="result6"></feComposite></filter><filter filterUnits="objectBoundingBox" height="26.999985" id="矩形_2252-2" node-id="150" width="76" x="345.692" y="246.579"><feOffset color-interpolation-filters="linearRGB" dx="0" dy="0" in="SourceGraphic" result="result1"></feOffset><feGaussianBlur color-interpolation-filters="linearRGB" in="result1" result="blur-18" stdDeviation="3 3"></feGaussianBlur><feFlood color-interpolation-filters="linearRGB" flood-color="#ffffff" flood-opacity="0.769" result="color-18"></feFlood><feComposite color-interpolation-filters="linearRGB" in="SourceGraphic" in2="blur-18" operator="out" result="result4"></feComposite><feComposite color-interpolation-filters="linearRGB" in="color-18" in2="result4" operator="in" result="result5"></feComposite><feComposite color-interpolation-filters="linearRGB" in="result5" in2="SourceGraphic" operator="in" result="result6"></feComposite></filter><filter filterUnits="objectBoundingBox" height="383.32443" id="矩形_2230" node-id="160" width="588" x="182.44" y="345.19632"><feOffset color-interpolation-filters="linearRGB" dx="0" dy="0" in="SourceGraphic" result="result1"></feOffset><feGaussianBlur color-interpolation-filters="linearRGB" in="result1" result="blur-19" stdDeviation="20 20"></feGaussianBlur><feFlood color-interpolation-filters="linearRGB" flood-color="#ffffff" flood-opacity="0.788" result="color-19"></feFlood><feComposite color-interpolation-filters="linearRGB" in="SourceGraphic" in2="blur-19" operator="out" result="result4"></feComposite><feComposite color-interpolation-filters="linearRGB" in="color-19" in2="result4" operator="in" result="result5"></feComposite><feComposite color-interpolation-filters="linearRGB" in="result5" in2="SourceGraphic" operator="in" result="result6"></feComposite></filter><filter filterUnits="objectBoundingBox" height="383.32443" id="矩形_2242" node-id="167" width="588" x="182.44" y="345.19632"><feOffset color-interpolation-filters="linearRGB" dx="-3" dy="0" in="SourceGraphic" result="result1"></feOffset><feGaussianBlur color-interpolation-filters="linearRGB" in="result1" result="blur-20" stdDeviation="3 3"></feGaussianBlur><feFlood color-interpolation-filters="linearRGB" flood-color="#ffffff" flood-opacity="0.4" result="color-20"></feFlood><feComposite color-interpolation-filters="linearRGB" in="SourceGraphic" in2="blur-20" operator="out" result="result4"></feComposite><feComposite color-interpolation-filters="linearRGB" in="color-20" in2="result4" operator="in" result="result5"></feComposite><feComposite color-interpolation-filters="linearRGB" in="result5" in2="SourceGraphic" operator="in" result="result6"></feComposite></filter><filter filterUnits="objectBoundingBox" height="54" id="矩形_2267" node-id="174" width="171.59998" x="390.64" y="415.58"><feOffset color-interpolation-filters="linearRGB" dx="0" dy="0" in="SourceGraphic" result="result1"></feOffset><feGaussianBlur color-interpolation-filters="linearRGB" in="result1" result="blur-21" stdDeviation="3 3"></feGaussianBlur><feFlood color-interpolation-filters="linearRGB" flood-color="#ffffff" flood-opacity="0.588" result="color-21"></feFlood><feComposite color-interpolation-filters="linearRGB" in="SourceGraphic" in2="blur-21" operator="out" result="result4"></feComposite><feComposite color-interpolation-filters="linearRGB" in="color-21" in2="result4" operator="in" result="result5"></feComposite><feComposite color-interpolation-filters="linearRGB" in="result5" in2="SourceGraphic" operator="in" result="result6"></feComposite></filter><filter filterUnits="objectBoundingBox" height="348.3246" id="减去_17" node-id="193" width="987.4235" x="-1.725174" y="192.674"><feOffset color-interpolation-filters="linearRGB" dx="0" dy="0" in="SourceGraphic" result="result1"></feOffset><feGaussianBlur color-interpolation-filters="linearRGB" in="result1" result="blur-22" stdDeviation="3 3"></feGaussianBlur><feFlood color-interpolation-filters="linearRGB" flood-color="#ffffff" result="color-22"></feFlood><feComposite color-interpolation-filters="linearRGB" in="SourceGraphic" in2="blur-22" operator="out" result="result4"></feComposite><feComposite color-interpolation-filters="linearRGB" in="color-22" in2="result4" operator="in" result="result5"></feComposite><feComposite color-interpolation-filters="linearRGB" in="result5" in2="SourceGraphic" operator="in" result="result6"></feComposite></filter><filter filterUnits="objectBoundingBox" height="111.600006" id="椭圆_722" node-id="203" width="111.600006" x="115.7" y="307.28"><feOffset color-interpolation-filters="linearRGB" dx="0" dy="0" in="SourceGraphic" result="result1"></feOffset><feGaussianBlur color-interpolation-filters="linearRGB" in="result1" result="blur-23" stdDeviation="10 10"></feGaussianBlur><feFlood color-interpolation-filters="linearRGB" flood-color="#ffffff" flood-opacity="0.82" result="color-23"></feFlood><feComposite color-interpolation-filters="linearRGB" in="SourceGraphic" in2="blur-23" operator="out" result="result4"></feComposite><feComposite color-interpolation-filters="linearRGB" in="color-23" in2="result4" operator="in" result="result5"></feComposite><feComposite color-interpolation-filters="linearRGB" in="result5" in2="SourceGraphic" operator="in" result="result6"></feComposite></filter><clipPath id="clip-文件夹" node-id="210"><path d="M 0.00 0.00 L 1024.00 0.00 L 1024.00 1024.00 L 0.00 1024.00 Z" fill="#000000" fill-rule="nonzero" node-id="755" stroke="none" target-height="1024" target-width="1024" target-x="0" target-y="0"></path></clipPath><clipPath id="clip-path" node-id="13"><path d="M 187.30 701.70 L 195.50 692.60 L 202.80 685.30 L 211.40 677.30 L 223.20 667.20 L 241.40 652.90 L 264.40 636.80 L 277.50 628.50 L 292.30 619.60 L 307.30 611.10 L 323.90 602.40 L 342.40 593.30 L 356.20 587.00 L 386.80 574.20 L 403.70 567.70 L 420.30 561.70 L 438.00 555.80 L 456.90 550.00 L 476.80 544.30 L 499.70 538.30 L 521.90 532.80 L 543.30 528.00 L 564.10 523.70 L 585.20 519.70 L 624.80 513.30 L 643.30 510.80 L 668.30 508.00 L 691.40 505.90 L 712.80 504.60 L 734.20 503.70 L 753.40 503.50 L 770.70 503.70 L 788.00 504.50 L 802.70 505.70 L 815.30 507.20 L 833.00 510.40 L 844.80 513.80 L 849.40 515.80 L 852.80 517.60 L 855.10 519.30 L 856.60 520.90 L 859.10 526.00 L 861.90 530.00 L 863.40 531.30 L 864.90 531.90 L 866.20 532.10 L 868.90 531.40 L 871.90 529.10 L 873.40 527.30 L 879.20 517.60 L 882.90 509.30 L 884.70 503.90 L 886.10 498.20 L 887.00 491.80 L 887.10 483.00 L 886.50 478.30 L 885.50 473.70 L 883.80 469.00 L 881.50 464.20 L 877.10 457.40 L 870.60 450.50 L 867.30 447.90 L 863.10 445.30 L 857.80 442.60 L 851.20 440.00 L 842.50 437.20 L 832.20 434.60 L 820.00 432.10 L 807.70 430.10 L 794.20 428.30 L 779.10 426.80 L 748.10 425.00 L 714.00 424.50 L 678.00 425.60 L 641.10 428.20 L 622.30 430.10 L 603.50 432.40 L 584.80 435.10 L 566.20 438.30 L 547.80 442.00 L 529.70 446.10 L 512.20 450.60 L 477.30 460.20 L 420.10 476.70 L 375.80 490.50 L 354.00 497.80 L 332.90 505.30 L 312.50 513.10 L 297.30 519.40 L 268.40 532.40 L 254.70 539.10 L 241.10 546.40 L 228.20 553.90 L 215.80 561.60 L 204.10 569.60 L 194.90 576.30 L 186.10 583.30 L 177.70 590.50 L 169.80 597.90 L 162.40 605.50 L 156.30 612.30 L 151.20 618.50 L 147.10 624.20 L 143.90 629.40 L 140.80 635.00 L 138.50 640.20 L 136.90 644.90 L 135.90 649.10 L 135.30 653.70 L 135.10 657.80 L 135.40 661.60 L 136.20 665.20 L 137.30 668.60 L 140.50 674.90 L 145.60 681.30 L 149.00 684.40 L 152.70 687.30 L 158.60 691.10 L 164.50 694.10 L 170.50 696.70 L 180.60 700.10 L 187.30 701.70 Z" fill="#000000" fill-rule="nonzero" id="路径_1747" node-id="14" stroke="none" target-height="277.2" target-width="752" target-x="135.1" target-y="424.5"></path></clipPath><clipPath id="clip-path-2" node-id="185"><path d="M 82.10 684.80 L 86.70 698.60 L 95.20 721.60 L 102.80 739.90 L 107.00 749.30 L 116.30 767.20 L 121.30 775.50 L 126.30 782.70 L 129.90 787.20 L 134.40 791.60 L 139.70 796.10 L 146.00 800.50 L 153.50 805.00 L 160.60 808.70 L 168.70 812.30 L 177.90 815.70 L 188.20 819.10 L 199.70 822.30 L 210.60 824.80 L 222.60 827.10 L 235.70 829.10 L 250.10 830.90 L 265.80 832.30 L 280.60 833.20 L 296.70 833.80 L 314.00 833.90 L 332.60 833.60 L 352.60 832.90 L 374.20 831.50 L 396.90 829.50 L 420.60 826.90 L 444.20 823.70 L 468.40 820.00 L 493.30 815.60 L 518.00 810.80 L 543.00 805.40 L 568.20 799.40 L 593.40 793.00 L 618.30 786.00 L 643.20 778.60 L 667.90 770.70 L 692.10 762.30 L 715.70 753.50 L 733.40 746.50 L 750.60 739.40 L 783.60 724.50 L 803.20 714.80 L 821.00 705.70 L 837.10 696.90 L 851.60 688.60 L 866.40 679.60 L 879.70 671.10 L 891.40 663.10 L 901.80 655.50 L 912.40 647.20 L 921.50 639.50 L 929.50 632.20 L 936.30 625.30 L 943.00 617.80 L 948.60 610.90 L 953.20 604.40 L 956.90 598.30 L 960.30 591.70 L 962.80 585.60 L 964.70 579.90 L 965.80 574.60 L 966.40 569.30 L 966.70 557.30 L 966.10 547.80 L 964.80 537.70 L 961.00 517.50 L 958.60 507.50 L 953.40 488.90 L 946.30 467.90 L 943.30 460.20 L 942.80 459.70 L 941.10 459.60 L 939.60 460.40 L 936.70 462.70 L 932.50 466.80 L 923.00 477.60 L 912.10 491.40 L 900.90 506.30 L 873.30 545.00 L 771.30 608.90 L 558.60 693.50 L 314.90 729.70 L 161.70 716.60 Z" fill="#000000" fill-rule="nonzero" id="路径_1749" node-id="186" stroke="none" target-height="374.30002" target-width="884.60004" target-x="82.1" target-y="459.6"></path></clipPath></defs><g clip-path="url(#clip-文件夹)" id="文件夹" node-id="212"><path d="M 1.70 -0.00 L 1025.70 -0.00 L 1025.70 1024.00 L 1.70 1024.00 Z" fill="#01275a" fill-rule="nonzero" hidden="true" node-id="766" stroke="none" target-height="1024" target-width="1023.99994" target-x="1.7000122" target-y="-0.000015258789" visibility="hidden"></path><path d="M 860.50 881.90 L 860.20 883.50 L 859.30 885.10 L 857.80 886.90 L 855.20 888.80 L 851.40 890.90 L 847.00 892.80 L 834.20 897.00 L 814.10 901.60 L 800.70 904.00 L 784.80 906.50 L 751.20 910.60 L 731.50 912.60 L 701.30 915.00 L 667.50 917.20 L 632.70 918.90 L 595.00 920.20 L 556.50 920.90 L 516.00 921.20 L 475.50 920.90 L 437.00 920.20 L 399.30 918.90 L 364.50 917.20 L 330.70 915.00 L 300.50 912.60 L 280.80 910.60 L 247.20 906.50 L 231.30 904.00 L 206.50 899.20 L 190.70 894.90 L 180.60 890.90 L 176.80 888.80 L 174.20 886.90 L 172.70 885.10 L 171.80 883.50 L 171.50 881.90 L 171.80 880.30 L 172.70 878.70 L 174.20 876.90 L 176.80 875.00 L 180.60 872.90 L 190.70 868.90 L 206.50 864.60 L 217.90 862.20 L 231.30 859.70 L 263.10 855.20 L 300.50 851.20 L 330.70 848.70 L 364.50 846.60 L 399.30 844.90 L 437.00 843.60 L 475.50 842.80 L 516.00 842.60 L 556.50 842.80 L 595.00 843.60 L 632.70 844.90 L 667.50 846.60 L 701.30 848.70 L 731.50 851.20 L 751.20 853.20 L 784.80 857.30 L 800.70 859.70 L 814.10 862.20 L 834.20 866.80 L 847.00 870.90 L 851.40 872.90 L 855.20 875.00 L 857.80 876.90 L 859.30 878.70 L 860.20 880.30 L 860.50 881.90 Z" fill="url(#radial-gradient)" fill-rule="nonzero" group-id="1" id="椭圆_749" node-id="214" stroke="none" target-height="78.60004" target-width="689" target-x="171.5" target-y="842.6"></path><path d="M 189.80 713.80 L 197.80 704.10 L 205.10 696.30 L 213.60 687.80 L 225.20 677.20 L 243.30 662.10 L 254.60 653.50 L 266.20 645.20 L 279.20 636.40 L 293.90 627.10 L 308.90 618.30 L 325.50 609.20 L 343.80 599.80 L 357.60 593.30 L 388.10 580.10 L 405.00 573.50 L 421.60 567.40 L 439.30 561.40 L 458.10 555.50 L 478.10 549.80 L 501.00 543.70 L 523.20 538.30 L 565.50 528.90 L 586.70 524.80 L 626.60 518.10 L 645.20 515.50 L 670.40 512.40 L 693.80 510.00 L 715.40 508.30 L 737.00 507.20 L 756.50 506.60 L 774.00 506.60 L 791.50 507.00 L 806.50 507.90 L 819.30 509.20 L 837.30 512.00 L 849.30 515.20 L 854.00 517.00 L 857.40 518.80 L 859.80 520.50 L 861.30 522.10 L 863.80 527.00 L 865.60 529.80 L 867.50 531.80 L 869.80 533.60 L 872.10 534.90 L 874.40 535.80 L 878.10 536.60 L 881.60 536.70 L 888.20 535.90 L 892.90 534.40 L 894.70 533.70 L 897.60 526.90 L 901.40 515.70 L 903.20 508.70 L 904.70 501.30 L 905.60 493.20 L 905.90 487.70 L 905.70 482.10 L 905.20 476.50 L 904.10 470.90 L 902.50 465.50 L 900.30 460.10 L 898.20 456.30 L 895.70 452.60 L 892.80 449.00 L 889.30 445.50 L 879.80 441.70 L 872.30 439.40 L 860.60 436.50 L 845.50 433.30 L 829.40 430.50 L 810.60 427.80 L 791.00 425.50 L 769.30 423.50 L 747.00 421.90 L 723.20 420.90 L 690.80 420.50 L 657.30 421.30 L 640.50 422.20 L 623.60 423.50 L 606.70 425.20 L 590.00 427.30 L 573.50 429.80 L 557.00 432.90 L 541.00 436.40 L 525.40 440.30 L 476.60 454.00 L 426.00 469.10 L 374.90 485.60 L 349.60 494.40 L 325.00 503.50 L 293.00 516.20 L 262.70 529.70 L 234.70 543.60 L 225.40 548.90 L 216.70 554.50 L 208.70 560.20 L 200.90 566.30 L 186.70 578.40 L 158.80 604.50 L 150.40 611.60 L 145.50 616.50 L 141.50 621.10 L 138.40 625.50 L 135.90 629.70 L 133.90 634.20 L 132.40 638.60 L 131.50 642.80 L 131.20 646.80 L 131.30 651.00 L 131.80 655.00 L 132.60 658.90 L 133.90 662.70 L 136.20 667.60 L 138.90 672.40 L 142.10 677.00 L 149.50 685.50 L 160.00 694.80 L 172.50 703.90 L 177.90 707.30 L 189.80 713.80 Z" fill="url(#linear-gradient)" fill-rule="nonzero" group-id="2" id="路径_1744" node-id="215" stroke="none" target-height="293.3" target-width="774.7" target-x="131.2" target-y="420.5"></path><g clip-path="url(#clip-path)" group-id="3" node-id="777"><path d="M 192.90 668.40 L 212.40 655.70 L 248.00 633.80 L 279.60 615.30 L 315.60 595.50 L 354.70 575.60 L 374.80 566.00 L 395.30 556.80 L 415.60 548.40 L 442.70 538.30 L 455.90 533.90 L 469.20 530.00 L 482.00 526.60 L 511.90 520.20 L 545.50 512.30 L 570.00 505.90 L 592.80 499.50 L 614.80 492.80 L 634.60 486.50 L 669.60 474.40 L 696.30 464.50 L 719.40 455.20 L 640.60 415.50 L 597.50 422.90 L 560.50 430.30 L 516.10 440.30 L 491.60 446.50 L 466.70 453.20 L 440.90 460.70 L 406.30 471.70 L 371.70 484.20 L 354.80 490.90 L 338.20 497.90 L 319.50 506.40 L 301.70 515.10 L 284.90 523.90 L 268.20 533.10 L 252.50 542.30 L 223.50 560.60 L 198.00 578.10 L 180.50 591.00 L 165.80 602.40 L 142.00 622.10 L 122.20 640.30 Z" fill="url(#linear-gradient-4)" fill-rule="nonzero" group-id="3,13" id="路径_1746" node-id="217" stroke="none" target-height="252.90002" target-width="597.2" target-x="122.2" target-y="415.5"></path></g><path d="M 134.50 724.60 L 120.50 718.90 L 114.10 715.80 L 103.40 709.20 L 95.00 702.40 L 91.20 698.40 L 88.00 694.50 L 85.40 690.40 L 83.20 686.20 L 81.60 681.90 L 80.30 677.20 L 79.60 672.30 L 79.40 667.30 L 79.80 662.10 L 80.80 656.70 L 82.50 651.10 L 84.80 645.20 L 87.90 638.90 L 91.50 632.90 L 95.70 626.70 L 100.80 620.20 L 106.70 613.40 L 119.60 600.60 L 135.80 586.80 L 147.20 578.10 L 159.80 569.30 L 173.80 560.10 L 188.00 551.50 L 203.40 542.70 L 220.00 533.70 L 237.00 525.10 L 255.00 516.50 L 274.00 508.00 L 293.10 499.80 L 313.00 491.80 L 333.80 483.90 L 360.80 474.20 L 387.90 465.20 L 415.20 456.70 L 442.70 448.80 L 470.30 441.40 L 497.10 434.80 L 523.80 428.70 L 550.60 423.20 L 576.90 418.30 L 599.40 414.50 L 622.00 411.10 L 644.60 408.10 L 667.20 405.70 L 689.90 403.60 L 712.60 402.00 L 733.70 401.10 L 753.60 400.60 L 772.40 400.70 L 791.30 401.30 L 808.90 402.30 L 825.40 403.90 L 838.00 405.40 L 860.50 409.30 L 870.50 411.50 L 880.60 414.30 L 889.90 417.20 L 898.30 420.30 L 905.80 423.50 L 912.20 426.70 L 922.90 433.20 L 931.30 440.10 L 935.00 444.00 L 938.20 448.00 L 940.90 452.10 L 943.10 456.20 L 944.70 460.50 L 946.00 465.30 L 946.70 470.10 L 946.90 475.10 L 946.40 480.30 L 945.40 485.70 L 943.80 491.30 L 941.50 497.30 L 938.40 503.50 L 935.70 508.20 L 866.30 526.90 L 870.80 521.40 L 874.80 515.70 L 878.50 509.70 L 881.30 503.90 L 883.30 498.50 L 884.60 493.30 L 885.30 488.40 L 885.30 483.70 L 884.80 479.20 L 883.70 474.70 L 882.00 470.50 L 879.70 466.40 L 876.80 462.50 L 873.30 458.60 L 869.00 454.90 L 863.90 451.20 L 857.90 447.60 L 850.90 444.20 L 844.60 441.50 L 829.70 436.60 L 821.10 434.40 L 809.70 432.00 L 797.00 429.90 L 782.90 428.20 L 769.00 427.00 L 754.10 426.10 L 738.10 425.70 L 722.10 425.70 L 705.30 426.20 L 687.40 427.00 L 664.30 428.80 L 641.20 431.00 L 618.10 433.80 L 595.20 437.20 L 572.30 441.00 L 549.10 445.30 L 525.70 450.20 L 502.30 455.50 L 478.70 461.30 L 454.90 467.60 L 431.30 474.40 L 407.80 481.70 L 384.40 489.50 L 361.20 497.70 L 341.20 505.30 L 321.50 513.30 L 301.90 521.80 L 282.50 530.80 L 263.40 540.20 L 249.10 547.80 L 235.80 555.30 L 223.70 562.70 L 211.70 570.40 L 200.80 577.90 L 191.10 585.30 L 183.80 591.20 L 171.40 602.40 L 161.20 613.50 L 156.90 618.90 L 153.30 624.20 L 150.30 629.20 L 147.50 635.00 L 145.40 640.40 L 144.10 645.60 L 143.50 650.50 L 143.40 655.20 L 144.00 659.70 L 145.10 664.20 L 146.50 667.70 L 148.30 671.20 L 150.50 674.50 L 153.20 677.80 L 156.40 681.10 L 160.60 684.60 L 165.50 688.10 L 171.20 691.50 L 177.80 694.70 L 185.30 697.80 L 200.50 702.70 L 208.30 704.70 Z" fill="url(#linear-gradient-5)" fill-rule="nonzero" group-id="4" id="减去_15" node-id="218" stroke="none" target-height="323.99997" target-width="867.5" target-x="79.4" target-y="400.6"></path><path d="M 795.50 343.60 L 777.20 343.60 L 759.70 335.40 L 740.90 327.30 L 720.90 319.20 L 700.70 311.50 L 679.50 304.00 L 657.30 296.60 L 635.00 289.60 L 611.90 282.90 L 588.10 276.30 L 564.20 270.20 L 539.80 264.40 L 514.90 258.90 L 491.90 254.10 L 446.60 245.90 L 401.70 239.30 L 358.70 234.30 L 318.60 231.10 L 279.90 229.40 L 248.80 229.40 L 236.30 229.70 L 212.40 231.00 L 209.10 223.20 L 236.40 221.50 L 250.70 221.10 L 265.70 221.00 L 289.30 221.30 L 312.90 222.20 L 336.40 223.70 L 360.00 225.60 L 383.50 228.10 L 427.10 233.90 L 471.60 241.20 L 516.70 250.10 L 558.30 259.50 L 599.00 270.00 L 637.50 281.20 L 674.60 293.20 L 709.40 305.70 L 742.10 318.70 L 769.90 331.00 L 795.50 343.60 Z" fill="url(#linearGradient1)" fill-rule="nonzero" group-id="5,14" id="减去_19-2" node-id="220" stroke="none" target-height="122.600006" target-width="586.4" target-x="209.1" target-y="221"></path><path d="M 795.50 343.60 L 777.20 343.60 L 759.70 335.40 L 740.90 327.30 L 720.90 319.20 L 700.70 311.60 L 679.50 304.00 L 657.30 296.60 L 635.00 289.60 L 611.90 282.90 L 588.10 276.30 L 564.20 270.20 L 539.80 264.40 L 514.90 258.90 L 491.90 254.20 L 446.60 245.90 L 401.70 239.30 L 358.70 234.30 L 318.60 231.10 L 279.90 229.40 L 248.80 229.40 L 236.30 229.70 L 212.40 231.00 L 209.10 223.20 L 236.40 221.50 L 250.70 221.10 L 265.70 221.00 L 289.30 221.30 L 312.90 222.20 L 336.40 223.70 L 360.00 225.60 L 383.50 228.10 L 427.10 233.90 L 471.60 241.20 L 516.70 250.10 L 558.30 259.50 L 599.00 270.00 L 637.50 281.20 L 674.60 293.20 L 709.40 305.70 L 742.10 318.70 L 769.90 331.00 L 795.50 343.60 Z" fill="#ffffff" fill-rule="nonzero" filter="url(#减去_19)" group-id="5,15,38" id="减去_19-3" node-id="222" stroke="none" target-height="122.600006" target-width="586.4" target-x="209.1" target-y="221"></path><path d="M 273.40 256.60 L 679.40 256.60 L 683.80 256.80 L 688.00 257.40 L 691.90 258.50 L 695.80 259.90 L 702.90 263.80 L 709.10 268.90 L 714.30 275.10 L 718.10 282.20 L 719.50 286.10 L 720.60 290.10 L 721.20 294.20 L 721.40 298.60 L 721.40 654.60 L 721.20 658.90 L 720.60 663.10 L 719.50 667.10 L 718.10 670.90 L 716.30 674.60 L 711.90 681.30 L 706.10 687.00 L 699.50 691.50 L 691.90 694.70 L 688.00 695.70 L 683.80 696.30 L 679.40 696.60 L 273.40 696.60 L 269.10 696.30 L 264.90 695.70 L 260.90 694.70 L 257.10 693.30 L 249.90 689.40 L 243.70 684.30 L 238.60 678.10 L 234.70 670.90 L 233.30 667.10 L 232.30 663.10 L 231.70 658.90 L 231.40 654.60 L 231.40 298.60 L 231.70 294.20 L 232.30 290.10 L 233.30 286.10 L 236.50 278.50 L 241.00 271.90 L 246.70 266.20 L 253.40 261.70 L 260.90 258.50 L 264.90 257.40 L 269.10 256.80 L 273.40 256.60 Z" fill="#3e72e9" fill-rule="nonzero" group-id="6,16,39" id="矩形_2229-2" node-id="225" stroke="none" target-height="439.99997" target-width="490.00003" target-x="231.4" target-y="256.6"></path><path d="M 273.40 256.60 L 679.40 256.60 L 683.80 256.80 L 688.00 257.40 L 692.00 258.50 L 695.80 259.90 L 702.90 263.80 L 709.10 268.90 L 714.30 275.10 L 718.10 282.20 L 719.60 286.10 L 720.60 290.10 L 721.20 294.20 L 721.40 298.60 L 721.40 654.60 L 721.20 658.90 L 720.60 663.10 L 719.60 667.10 L 716.40 674.60 L 711.90 681.30 L 706.10 687.00 L 699.50 691.50 L 692.00 694.70 L 688.00 695.70 L 683.80 696.30 L 679.40 696.60 L 273.40 696.60 L 269.10 696.30 L 264.90 695.70 L 260.90 694.70 L 257.10 693.30 L 249.90 689.40 L 243.70 684.30 L 238.60 678.10 L 234.70 670.90 L 233.30 667.10 L 232.30 663.10 L 231.70 658.90 L 231.40 654.60 L 231.40 298.60 L 231.70 294.20 L 232.30 290.10 L 233.30 286.10 L 234.70 282.20 L 236.50 278.50 L 241.00 271.90 L 246.70 266.20 L 253.40 261.70 L 260.90 258.50 L 264.90 257.40 L 269.10 256.80 L 273.40 256.60 Z" fill="#ffffff" fill-rule="nonzero" filter="url(#矩形_2229)" group-id="6,16,40,64" id="矩形_2229-3" node-id="227" stroke="none" target-height="439.99997" target-width="490.00003" target-x="231.4" target-y="256.6"></path><path d="M 590.10 128.60 L 808.30 254.60 L 811.70 256.80 L 817.50 261.90 L 819.90 264.90 L 822.70 269.10 L 824.90 273.60 L 826.50 278.30 L 827.50 283.20 L 827.80 288.10 L 827.50 293.20 L 826.90 296.90 L 824.40 304.30 L 822.60 307.90 L 649.10 608.40 L 646.90 611.80 L 644.40 614.80 L 638.90 620.00 L 634.60 622.80 L 630.10 625.00 L 625.40 626.60 L 620.50 627.60 L 615.60 627.90 L 610.50 627.60 L 603.10 625.90 L 595.80 622.70 L 377.60 496.70 L 374.20 494.50 L 368.40 489.30 L 366.00 486.40 L 363.20 482.20 L 361.00 477.70 L 359.40 473.00 L 358.40 468.10 L 358.10 463.10 L 358.40 458.10 L 359.00 454.30 L 361.50 447.00 L 363.30 443.40 L 536.80 142.90 L 539.00 139.50 L 541.50 136.40 L 547.10 131.30 L 551.30 128.50 L 555.80 126.30 L 560.50 124.70 L 565.40 123.70 L 570.30 123.40 L 575.40 123.70 L 582.80 125.30 L 590.10 128.60 Z" fill="url(#linearGradient2)" fill-rule="nonzero" group-id="6,17,41,65" id="矩形_2244-3" node-id="230" stroke="none" target-height="504.50003" target-width="469.69998" target-x="358.1" target-y="123.4"></path><path d="M 591.90 130.20 L 810.60 257.10 L 814.00 259.30 L 819.80 264.50 L 822.20 267.40 L 826.20 273.90 L 827.60 277.30 L 829.60 284.60 L 830.10 292.00 L 829.10 299.60 L 828.10 303.30 L 824.80 310.60 L 650.10 611.80 L 647.90 615.20 L 642.80 621.00 L 636.60 625.60 L 629.90 628.80 L 622.60 630.80 L 615.20 631.30 L 607.60 630.30 L 600.30 627.80 L 596.60 626.00 L 377.90 499.10 L 374.50 496.90 L 368.70 491.80 L 366.30 488.80 L 362.30 482.40 L 360.80 478.90 L 358.90 471.60 L 358.40 464.20 L 359.40 456.60 L 360.40 452.90 L 363.70 445.60 L 538.40 144.40 L 540.60 141.00 L 545.70 135.20 L 551.80 130.70 L 558.60 127.40 L 565.90 125.50 L 573.30 125.00 L 580.90 125.90 L 588.20 128.40 L 591.90 130.20 Z" fill="#ffffff" fill-rule="nonzero" filter="url(#矩形_2244)" group-id="6,17,41,66,99" id="矩形_2244-4" node-id="232" stroke="none" target-height="506.3" target-width="471.69998" target-x="358.4" target-y="125"></path><path d="M 582.10 122.30 L 800.30 248.30 L 803.70 250.50 L 809.50 255.60 L 811.90 258.50 L 814.70 262.80 L 816.90 267.20 L 818.50 272.00 L 819.50 276.90 L 819.80 281.80 L 819.50 286.90 L 818.90 290.60 L 816.40 298.00 L 814.60 301.60 L 641.10 602.10 L 638.90 605.50 L 636.50 608.50 L 630.90 613.70 L 626.60 616.50 L 622.20 618.70 L 617.40 620.30 L 612.50 621.20 L 607.60 621.60 L 602.50 621.30 L 595.10 619.60 L 591.40 618.20 L 587.80 616.40 L 369.60 490.40 L 366.20 488.10 L 360.40 483.00 L 358.00 480.10 L 355.20 475.90 L 353.00 471.40 L 351.40 466.70 L 350.40 461.80 L 350.10 456.80 L 350.40 451.80 L 351.00 448.00 L 353.50 440.70 L 355.30 437.10 L 528.80 136.60 L 531.00 133.20 L 533.50 130.10 L 539.10 125.00 L 543.30 122.20 L 547.80 120.00 L 552.50 118.40 L 557.40 117.40 L 562.40 117.10 L 567.40 117.40 L 574.80 119.00 L 582.10 122.30 Z" fill="url(#linearGradient3)" fill-rule="nonzero" group-id="6,17,42,67" id="矩形_2245-3" node-id="234" stroke="none" target-height="504.49997" target-width="469.69998" target-x="350.1" target-y="117.1"></path><path d="M 583.90 123.90 L 802.60 250.70 L 806.00 253.00 L 811.80 258.10 L 814.20 261.00 L 818.20 267.50 L 819.60 271.00 L 821.60 278.20 L 822.10 285.70 L 821.10 293.30 L 820.10 297.00 L 816.80 304.20 L 642.10 605.40 L 639.90 608.80 L 637.40 611.90 L 631.80 617.10 L 625.30 621.00 L 618.30 623.60 L 610.90 624.80 L 603.40 624.60 L 595.90 622.90 L 592.30 621.50 L 588.60 619.70 L 369.90 492.80 L 366.50 490.60 L 360.70 485.40 L 358.30 482.50 L 354.30 476.00 L 352.80 472.60 L 350.90 465.30 L 350.40 457.80 L 351.30 450.30 L 352.40 446.60 L 355.70 439.30 L 530.40 138.10 L 532.60 134.70 L 537.70 128.90 L 543.80 124.30 L 550.60 121.00 L 557.80 119.10 L 565.30 118.60 L 572.90 119.60 L 580.20 122.00 L 583.90 123.90 Z" fill="#ffffff" fill-rule="nonzero" filter="url(#矩形_2245)" group-id="6,17,42,68,100" id="矩形_2245-4" node-id="236" stroke="none" target-height="506.19998" target-width="471.69998" target-x="350.4" target-y="118.6"></path><path d="M 658.20 227.40 L 775.10 294.90 L 777.00 296.40 L 778.30 298.10 L 779.10 300.10 L 779.40 302.30 L 779.10 304.40 L 778.20 306.60 L 776.80 308.40 L 775.10 309.70 L 773.10 310.50 L 770.90 310.80 L 768.80 310.50 L 766.60 309.70 L 649.70 242.20 L 647.90 240.80 L 646.60 239.00 L 645.80 237.00 L 645.50 234.90 L 645.70 232.70 L 646.60 230.60 L 648.00 228.70 L 649.80 227.40 L 651.80 226.60 L 653.90 226.30 L 656.10 226.60 L 658.20 227.40 Z" fill="#87b5ff" fill-rule="nonzero" group-id="6,17,43,69" id="矩形_2246-3" node-id="238" stroke="none" target-height="84.499985" target-width="133.90002" target-x="645.5" target-y="226.3"></path><path d="M 660.00 229.50 L 777.20 297.50 L 779.00 298.90 L 780.40 300.70 L 781.20 302.70 L 781.50 304.90 L 781.20 307.00 L 780.30 309.20 L 778.90 311.00 L 777.10 312.30 L 775.10 313.10 L 773.00 313.40 L 770.80 313.10 L 768.70 312.30 L 651.50 244.30 L 649.70 242.90 L 648.30 241.10 L 647.50 239.10 L 647.20 236.90 L 647.50 234.80 L 648.40 232.60 L 649.80 230.80 L 651.50 229.50 L 653.60 228.70 L 655.70 228.40 L 657.90 228.70 L 660.00 229.50 Z" fill="#ffffff" fill-rule="nonzero" filter="url(#矩形_2246)" group-id="6,17,43,70,101" id="矩形_2246-4" node-id="240" stroke="none" target-height="85" target-width="134.29999" target-x="647.2" target-y="228.4"></path><path d="M 525.20 216.80 L 745.10 343.80 L 747.00 345.20 L 748.30 347.00 L 749.10 349.00 L 749.40 351.20 L 749.10 353.30 L 748.20 355.40 L 746.80 357.30 L 745.10 358.60 L 743.10 359.40 L 740.90 359.70 L 738.80 359.40 L 736.60 358.60 L 516.70 231.60 L 514.80 230.20 L 513.50 228.40 L 512.70 226.40 L 512.40 224.20 L 512.70 222.10 L 513.60 219.90 L 515.00 218.10 L 516.70 216.80 L 518.70 216.00 L 520.90 215.70 L 523.00 216.00 L 525.20 216.80 Z" fill="#87b5ff" fill-rule="nonzero" group-id="6,17,44,71" id="矩形_2250-3" node-id="242" stroke="none" target-height="144.00002" target-width="237" target-x="512.4" target-y="215.7"></path><path d="M 526.50 218.60 L 747.00 346.50 L 748.80 347.90 L 750.20 349.70 L 751.00 351.70 L 751.30 353.90 L 751.00 356.00 L 750.10 358.20 L 748.70 360.00 L 746.90 361.30 L 744.90 362.10 L 742.80 362.40 L 740.60 362.10 L 738.50 361.30 L 518.00 233.40 L 516.20 232.00 L 514.80 230.20 L 514.00 228.20 L 513.70 226.00 L 514.00 223.90 L 514.90 221.70 L 516.30 219.90 L 518.00 218.60 L 520.10 217.80 L 522.20 217.50 L 524.40 217.80 L 526.50 218.60 Z" fill="#ffffff" fill-rule="nonzero" filter="url(#矩形_2250)" group-id="6,17,44,72,102" id="矩形_2250-4" node-id="244" stroke="none" target-height="144.9" target-width="237.59998" target-x="513.7" target-y="217.5"></path><path d="M 498.70 265.80 L 718.60 392.80 L 720.50 394.20 L 721.80 396.00 L 722.60 398.00 L 722.90 400.10 L 722.60 402.30 L 721.70 404.40 L 720.30 406.20 L 718.60 407.60 L 716.60 408.40 L 714.40 408.70 L 712.30 408.40 L 710.10 407.50 L 490.20 280.50 L 488.30 279.10 L 487.00 277.40 L 486.20 275.40 L 485.90 273.20 L 486.20 271.00 L 487.10 268.90 L 488.50 267.10 L 490.20 265.80 L 492.20 265.00 L 494.40 264.70 L 496.50 264.90 L 498.70 265.80 Z" fill="#87b5ff" fill-rule="nonzero" group-id="6,17,45,73" id="矩形_2265-3" node-id="246" stroke="none" target-height="144" target-width="237.00003" target-x="485.9" target-y="264.7"></path><path d="M 499.80 267.70 L 720.30 395.60 L 722.10 397.00 L 723.50 398.80 L 724.30 400.80 L 724.60 402.90 L 724.30 405.10 L 723.40 407.20 L 722.00 409.10 L 720.30 410.40 L 718.20 411.20 L 716.10 411.50 L 713.90 411.20 L 711.80 410.30 L 491.30 282.50 L 489.50 281.10 L 488.20 279.30 L 487.30 277.30 L 487.00 275.10 L 487.30 272.90 L 488.20 270.80 L 489.60 269.00 L 491.40 267.70 L 493.40 266.90 L 495.50 266.60 L 497.70 266.80 L 499.80 267.70 Z" fill="#ffffff" fill-rule="nonzero" filter="url(#矩形_2265)" group-id="6,17,45,74,103" id="矩形_2265-4" node-id="248" stroke="none" target-height="144.9" target-width="237.59998" target-x="487" target-y="266.6"></path><path d="M 476.20 304.80 L 696.10 431.80 L 698.00 433.20 L 699.30 434.90 L 700.10 436.90 L 700.40 439.10 L 700.10 441.30 L 699.20 443.40 L 697.80 445.20 L 696.10 446.50 L 694.10 447.40 L 691.90 447.60 L 689.80 447.40 L 687.60 446.50 L 467.70 319.50 L 465.80 318.10 L 464.50 316.40 L 463.70 314.30 L 463.40 312.20 L 463.70 310.00 L 464.60 307.90 L 466.00 306.10 L 467.70 304.80 L 469.70 303.90 L 471.90 303.60 L 474.00 303.90 L 476.20 304.80 Z" fill="#87b5ff" fill-rule="nonzero" group-id="6,17,46,75" id="矩形_2266-3" node-id="250" stroke="none" target-height="144" target-width="237.00003" target-x="463.4" target-y="303.6"></path><path d="M 477.20 306.80 L 697.70 434.60 L 699.50 436.10 L 700.80 437.80 L 701.60 439.80 L 701.90 442.00 L 701.60 444.20 L 700.80 446.30 L 699.40 448.10 L 697.60 449.40 L 695.60 450.30 L 693.40 450.60 L 691.20 450.30 L 689.10 449.40 L 468.60 321.50 L 466.80 320.10 L 465.50 318.40 L 464.70 316.30 L 464.40 314.20 L 464.70 312.00 L 465.50 309.90 L 466.90 308.10 L 468.70 306.70 L 470.70 305.90 L 472.90 305.60 L 475.10 305.90 L 477.20 306.80 Z" fill="#ffffff" fill-rule="nonzero" filter="url(#矩形_2266)" group-id="6,17,46,76,104" id="矩形_2266-4" node-id="252" stroke="none" target-height="145" target-width="237.50003" target-x="464.4" target-y="305.6"></path><path d="M 610.30 201.50 L 608.20 204.40 L 605.80 206.80 L 603.00 208.70 L 599.90 210.00 L 596.70 210.80 L 593.30 211.10 L 589.90 210.80 L 586.50 209.90 L 583.20 208.40 L 580.20 206.30 L 577.70 203.80 L 575.80 201.00 L 574.30 197.90 L 573.40 194.70 L 573.10 191.40 L 573.30 188.00 L 574.10 184.70 L 575.60 181.50 L 577.70 178.60 L 580.10 176.20 L 582.90 174.30 L 586.00 173.00 L 589.20 172.10 L 592.60 171.90 L 596.00 172.20 L 599.40 173.10 L 602.70 174.60 L 605.70 176.70 L 608.20 179.20 L 610.10 182.00 L 611.60 185.10 L 612.50 188.30 L 612.80 191.60 L 612.60 195.00 L 611.80 198.20 L 610.30 201.50 Z" fill="#8eb0f9" fill-rule="nonzero" group-id="6,17,47,77" id="椭圆_705-3" node-id="254" stroke="none" target-height="39.200012" target-width="39.700012" target-x="573.1" target-y="171.9"></path><path d="M 612.00 203.40 L 609.90 206.30 L 607.50 208.70 L 604.60 210.60 L 601.50 211.90 L 598.30 212.80 L 594.90 213.00 L 591.50 212.70 L 588.10 211.80 L 584.80 210.30 L 581.80 208.10 L 579.30 205.70 L 577.40 202.90 L 575.90 199.80 L 575.00 196.60 L 574.70 193.20 L 574.90 189.80 L 575.80 186.50 L 577.20 183.30 L 579.30 180.40 L 581.80 178.00 L 584.60 176.10 L 587.70 174.70 L 590.90 173.90 L 594.30 173.60 L 597.70 173.90 L 601.10 174.90 L 604.40 176.40 L 607.40 178.50 L 609.90 181.00 L 611.80 183.80 L 613.30 186.90 L 614.20 190.10 L 614.60 193.50 L 614.30 196.90 L 613.50 200.10 L 612.00 203.40 Z" fill="#ffffff" fill-rule="nonzero" filter="url(#椭圆_705)" group-id="6,17,47,78,105" id="椭圆_705-4" node-id="256" stroke="none" target-height="39.399994" target-width="39.899963" target-x="574.7" target-y="173.6"></path><path d="M 570.30 206.70 L 589.40 217.70 L 592.40 219.80 L 595.10 222.20 L 597.40 224.80 L 599.30 227.70 L 600.80 230.80 L 601.90 234.10 L 602.60 237.50 L 602.90 240.90 L 602.70 244.40 L 602.00 247.90 L 600.90 251.30 L 599.20 254.60 L 533.40 216.60 L 535.50 213.50 L 537.90 210.80 L 540.50 208.60 L 543.50 206.60 L 546.50 205.10 L 549.80 204.00 L 553.20 203.30 L 556.60 203.10 L 560.10 203.30 L 563.60 204.00 L 567.00 205.10 L 570.30 206.70 Z" fill="#6193f5" fill-rule="nonzero" group-id="6,17,48,79" id="矩形_2252-3" node-id="258" stroke="none" target-height="51.5" target-width="69.5" target-x="533.4" target-y="203.1"></path><path d="M 571.90 208.60 L 591.00 219.60 L 594.00 221.70 L 596.70 224.10 L 599.00 226.80 L 600.90 229.70 L 602.40 232.80 L 603.60 236.10 L 604.20 239.50 L 604.50 243.00 L 604.30 246.50 L 603.60 249.90 L 602.40 253.30 L 600.80 256.70 L 534.80 218.40 L 536.90 215.30 L 539.30 212.60 L 542.00 210.30 L 544.90 208.40 L 548.00 206.90 L 551.30 205.80 L 554.70 205.10 L 558.20 204.90 L 561.70 205.10 L 565.10 205.80 L 568.50 206.90 L 571.90 208.60 Z" fill="#ffffff" fill-rule="nonzero" filter="url(#矩形_2252)" group-id="6,17,48,80,106" id="矩形_2252-4" node-id="260" stroke="none" target-height="51.80002" target-width="69.70001" target-x="534.8" target-y="204.9"></path><path d="M 350.70 166.10 L 602.70 166.10 L 606.70 166.30 L 614.30 167.80 L 617.90 169.10 L 622.40 171.40 L 626.50 174.20 L 630.30 177.50 L 633.60 181.30 L 636.40 185.40 L 638.60 189.90 L 639.90 193.50 L 641.50 201.00 L 641.70 205.10 L 641.70 552.10 L 641.50 556.10 L 640.90 560.00 L 638.60 567.30 L 636.40 571.80 L 633.60 575.90 L 630.30 579.70 L 626.50 583.00 L 622.40 585.70 L 617.90 588.00 L 610.60 590.30 L 602.70 591.10 L 350.70 591.10 L 346.60 590.90 L 339.10 589.30 L 335.50 588.00 L 331.00 585.70 L 326.90 583.00 L 323.10 579.70 L 319.80 575.90 L 317.00 571.80 L 314.80 567.30 L 313.40 563.70 L 311.90 556.10 L 311.70 552.10 L 311.70 205.10 L 311.90 201.00 L 312.50 197.20 L 314.80 189.90 L 317.00 185.40 L 319.80 181.30 L 323.10 177.50 L 326.90 174.20 L 331.00 171.40 L 335.50 169.10 L 342.80 166.90 L 350.70 166.10 Z" fill="url(#linear-gradient-7)" fill-rule="nonzero" group-id="6,18,49,81" id="矩形_2244-5" node-id="263" stroke="none" target-height="424.99997" target-width="330" target-x="311.7" target-y="166.1"></path><path d="M 350.70 166.10 L 602.70 166.10 L 606.70 166.30 L 614.30 167.80 L 617.90 169.10 L 622.40 171.40 L 626.50 174.20 L 630.30 177.50 L 633.60 181.30 L 636.40 185.40 L 638.60 189.90 L 639.90 193.50 L 641.50 201.00 L 641.70 205.10 L 641.70 552.10 L 641.50 556.10 L 640.90 560.00 L 638.60 567.30 L 636.40 571.80 L 633.60 575.90 L 630.30 579.70 L 626.50 583.00 L 622.40 585.70 L 617.90 588.00 L 610.60 590.30 L 602.70 591.10 L 350.70 591.10 L 346.60 590.90 L 339.10 589.30 L 335.50 588.00 L 331.00 585.70 L 326.90 583.00 L 323.10 579.70 L 319.80 575.90 L 317.00 571.80 L 314.80 567.30 L 313.40 563.70 L 311.90 556.10 L 311.70 552.10 L 311.70 205.10 L 311.90 201.00 L 312.50 197.20 L 314.80 189.90 L 317.00 185.40 L 319.80 181.30 L 323.10 177.50 L 326.90 174.20 L 331.00 171.40 L 335.50 169.10 L 342.80 166.90 L 350.70 166.10 Z" fill="#ffffff" fill-rule="nonzero" filter="url(#矩形_2244-2)" group-id="6,18,49,82,107" id="矩形_2244-6" node-id="265" stroke="none" target-height="424.99997" target-width="330" target-x="311.7" target-y="166.1"></path><path d="M 340.70 167.60 L 592.70 167.60 L 596.70 167.80 L 604.30 169.30 L 607.90 170.60 L 612.40 172.90 L 616.50 175.70 L 620.30 179.00 L 623.60 182.80 L 626.40 186.90 L 628.60 191.40 L 629.90 195.00 L 631.50 202.50 L 631.70 206.60 L 631.70 553.60 L 631.50 557.60 L 630.90 561.50 L 628.60 568.80 L 626.40 573.30 L 623.60 577.40 L 620.30 581.20 L 616.50 584.50 L 612.40 587.20 L 607.90 589.50 L 600.60 591.80 L 596.70 592.40 L 592.70 592.60 L 340.70 592.60 L 336.60 592.40 L 329.10 590.80 L 325.50 589.50 L 321.00 587.20 L 316.90 584.50 L 313.10 581.20 L 309.80 577.40 L 307.00 573.30 L 304.80 568.80 L 303.40 565.20 L 301.90 557.60 L 301.70 553.60 L 301.70 206.60 L 301.90 202.50 L 302.50 198.70 L 304.80 191.40 L 307.00 186.90 L 309.80 182.80 L 313.10 179.00 L 316.90 175.70 L 321.00 172.90 L 325.50 170.60 L 332.80 168.40 L 340.70 167.60 Z" fill="url(#linear-gradient-8)" fill-rule="nonzero" group-id="6,18,50,83" id="矩形_2245-5" node-id="267" stroke="none" target-height="424.99997" target-width="330" target-x="301.7" target-y="167.6"></path><path d="M 340.70 167.60 L 592.70 167.60 L 596.70 167.80 L 604.30 169.30 L 607.90 170.60 L 612.40 172.90 L 616.50 175.70 L 620.30 179.00 L 623.60 182.80 L 626.40 186.90 L 628.60 191.40 L 629.90 195.00 L 631.50 202.50 L 631.70 206.60 L 631.70 553.60 L 631.50 557.60 L 630.90 561.50 L 628.60 568.80 L 626.40 573.30 L 623.60 577.40 L 620.30 581.20 L 616.50 584.50 L 612.40 587.20 L 607.90 589.50 L 600.60 591.80 L 596.70 592.40 L 592.70 592.60 L 340.70 592.60 L 336.60 592.40 L 329.10 590.80 L 325.50 589.50 L 321.00 587.20 L 316.90 584.50 L 313.10 581.20 L 309.80 577.40 L 307.00 573.30 L 304.80 568.80 L 303.40 565.20 L 301.90 557.60 L 301.70 553.60 L 301.70 206.60 L 301.90 202.50 L 302.50 198.70 L 304.80 191.40 L 307.00 186.90 L 309.80 182.80 L 313.10 179.00 L 316.90 175.70 L 321.00 172.90 L 325.50 170.60 L 332.80 168.40 L 340.70 167.60 Z" fill="#ffffff" fill-rule="nonzero" filter="url(#矩形_2245-2)" group-id="6,18,50,84,108" id="矩形_2245-6" node-id="269" stroke="none" target-height="424.99997" target-width="330" target-x="301.7" target-y="167.6"></path><path d="M 459.20 229.60 L 594.20 229.60 L 596.50 229.90 L 598.50 230.70 L 600.20 232.10 L 601.50 233.80 L 602.40 235.80 L 602.70 238.10 L 602.40 240.40 L 601.50 242.40 L 600.20 244.10 L 598.50 245.40 L 596.50 246.30 L 594.20 246.60 L 459.20 246.60 L 456.90 246.30 L 454.90 245.40 L 453.20 244.10 L 451.90 242.40 L 451.00 240.40 L 450.70 238.10 L 451.00 235.80 L 451.90 233.80 L 453.20 232.10 L 454.90 230.70 L 456.90 229.90 L 459.20 229.60 Z" fill="#87b5ff" fill-rule="nonzero" group-id="6,18,51,85" id="矩形_2246-5" node-id="271" stroke="none" target-height="17" target-width="152" target-x="450.7" target-y="229.6"></path><path d="M 459.20 229.60 L 594.20 229.60 L 596.50 229.90 L 598.50 230.70 L 600.20 232.10 L 601.50 233.80 L 602.40 235.80 L 602.70 238.10 L 602.40 240.40 L 601.50 242.40 L 600.20 244.10 L 598.50 245.40 L 596.50 246.30 L 594.20 246.60 L 459.20 246.60 L 456.90 246.30 L 454.90 245.40 L 453.20 244.10 L 451.90 242.40 L 451.00 240.40 L 450.70 238.10 L 451.00 235.80 L 451.90 233.80 L 453.20 232.10 L 454.90 230.70 L 456.90 229.90 L 459.20 229.60 Z" fill="#ffffff" fill-rule="nonzero" filter="url(#矩形_2246-2)" group-id="6,18,51,86,109" id="矩形_2246-6" node-id="273" stroke="none" target-height="17" target-width="152" target-x="450.7" target-y="229.6"></path><path d="M 340.20 288.60 L 594.20 288.60 L 596.50 288.90 L 598.50 289.70 L 600.20 291.10 L 601.50 292.80 L 602.40 294.80 L 602.70 297.10 L 602.40 299.40 L 601.50 301.40 L 600.20 303.10 L 598.50 304.40 L 596.50 305.30 L 594.20 305.60 L 340.20 305.60 L 337.90 305.30 L 335.90 304.40 L 334.20 303.10 L 332.90 301.40 L 332.00 299.40 L 331.70 297.10 L 332.00 294.80 L 332.90 292.80 L 334.20 291.10 L 335.90 289.70 L 337.90 288.90 L 340.20 288.60 Z" fill="#87b5ff" fill-rule="nonzero" group-id="6,18,52,87" id="矩形_2250-5" node-id="275" stroke="none" target-height="17" target-width="271" target-x="331.7" target-y="288.6"></path><path d="M 340.20 288.60 L 594.20 288.60 L 596.50 288.90 L 598.50 289.70 L 600.20 291.10 L 601.50 292.80 L 602.40 294.80 L 602.70 297.10 L 602.40 299.40 L 601.50 301.40 L 600.20 303.10 L 598.50 304.40 L 596.50 305.30 L 594.20 305.60 L 340.20 305.60 L 337.90 305.30 L 335.90 304.40 L 334.20 303.10 L 332.90 301.40 L 332.00 299.40 L 331.70 297.10 L 332.00 294.80 L 332.90 292.80 L 334.20 291.10 L 335.90 289.70 L 337.90 288.90 L 340.20 288.60 Z" fill="#ffffff" fill-rule="nonzero" filter="url(#矩形_2250-2)" group-id="6,18,52,88,110" id="矩形_2250-6" node-id="277" stroke="none" target-height="17" target-width="271" target-x="331.7" target-y="288.6"></path><path d="M 340.20 333.60 L 594.20 333.60 L 596.50 333.90 L 598.50 334.70 L 600.20 336.10 L 601.50 337.80 L 602.40 339.80 L 602.70 342.10 L 602.40 344.40 L 601.50 346.40 L 600.20 348.10 L 598.50 349.40 L 596.50 350.30 L 594.20 350.60 L 340.20 350.60 L 337.90 350.30 L 335.90 349.40 L 334.20 348.10 L 332.90 346.40 L 332.00 344.40 L 331.70 342.10 L 332.00 339.80 L 332.90 337.80 L 334.20 336.10 L 335.90 334.70 L 337.90 333.90 L 340.20 333.60 Z" fill="#87b5ff" fill-rule="nonzero" group-id="6,18,53,89" id="矩形_2265-5" node-id="279" stroke="none" target-height="17" target-width="271" target-x="331.7" target-y="333.6"></path><path d="M 340.20 333.60 L 594.20 333.60 L 596.50 333.90 L 598.50 334.70 L 600.20 336.10 L 601.50 337.80 L 602.40 339.80 L 602.70 342.10 L 602.40 344.40 L 601.50 346.40 L 600.20 348.10 L 598.50 349.40 L 596.50 350.30 L 594.20 350.60 L 340.20 350.60 L 337.90 350.30 L 335.90 349.40 L 334.20 348.10 L 332.90 346.40 L 332.00 344.40 L 331.70 342.10 L 332.00 339.80 L 332.90 337.80 L 334.20 336.10 L 335.90 334.70 L 337.90 333.90 L 340.20 333.60 Z" fill="#ffffff" fill-rule="nonzero" filter="url(#矩形_2265-2)" group-id="6,18,53,90,111" id="矩形_2265-6" node-id="281" stroke="none" target-height="17" target-width="271" target-x="331.7" target-y="333.6"></path><path d="M 340.20 378.60 L 594.20 378.60 L 596.50 378.90 L 598.50 379.70 L 600.20 381.10 L 601.50 382.80 L 602.40 384.80 L 602.70 387.10 L 602.40 389.40 L 601.50 391.40 L 600.20 393.10 L 598.50 394.40 L 596.50 395.30 L 594.20 395.60 L 340.20 395.60 L 337.90 395.30 L 335.90 394.40 L 334.20 393.10 L 332.90 391.40 L 332.00 389.40 L 331.70 387.10 L 332.00 384.80 L 332.90 382.80 L 334.20 381.10 L 335.90 379.70 L 337.90 378.90 L 340.20 378.60 Z" fill="#87b5ff" fill-rule="nonzero" group-id="6,18,54,91" id="矩形_2266-5" node-id="283" stroke="none" target-height="17" target-width="271" target-x="331.7" target-y="378.6"></path><path d="M 340.20 378.60 L 594.20 378.60 L 596.50 378.90 L 598.50 379.70 L 600.20 381.10 L 601.50 382.80 L 602.40 384.80 L 602.70 387.10 L 602.40 389.40 L 601.50 391.40 L 600.20 393.10 L 598.50 394.40 L 596.50 395.30 L 594.20 395.60 L 340.20 395.60 L 337.90 395.30 L 335.90 394.40 L 334.20 393.10 L 332.90 391.40 L 332.00 389.40 L 331.70 387.10 L 332.00 384.80 L 332.90 382.80 L 334.20 381.10 L 335.90 379.70 L 337.90 378.90 L 340.20 378.60 Z" fill="#ffffff" fill-rule="nonzero" filter="url(#矩形_2266-2)" group-id="6,18,54,92,112" id="矩形_2266-6" node-id="285" stroke="none" target-height="17" target-width="271" target-x="331.7" target-y="378.6"></path><path d="M 404.70 222.10 L 404.40 225.60 L 403.40 228.90 L 402.00 231.90 L 400.00 234.70 L 397.60 237.00 L 394.80 238.90 L 391.70 240.40 L 388.30 241.20 L 384.70 241.60 L 381.00 241.20 L 377.70 240.40 L 374.60 238.90 L 371.80 237.00 L 369.40 234.70 L 367.40 231.90 L 365.90 228.90 L 365.00 225.60 L 364.70 222.10 L 365.00 218.50 L 365.90 215.30 L 367.40 212.20 L 369.40 209.50 L 371.80 207.20 L 374.60 205.20 L 377.70 203.80 L 381.00 202.90 L 384.70 202.60 L 388.30 202.90 L 391.70 203.80 L 394.80 205.20 L 397.60 207.20 L 400.00 209.50 L 402.00 212.20 L 403.40 215.30 L 404.40 218.50 L 404.70 222.10 Z" fill="#8eb0f9" fill-rule="nonzero" group-id="6,18,55,93" id="椭圆_705-5" node-id="287" stroke="none" target-height="39" target-width="40" target-x="364.7" target-y="202.6"></path><path d="M 404.70 222.10 L 404.40 225.60 L 403.40 228.90 L 402.00 231.90 L 400.00 234.70 L 397.60 237.00 L 394.80 238.90 L 391.70 240.40 L 388.30 241.30 L 384.70 241.60 L 381.00 241.30 L 377.70 240.40 L 374.60 238.90 L 371.80 237.00 L 369.40 234.70 L 367.40 231.90 L 365.90 228.90 L 365.00 225.60 L 364.70 222.10 L 365.00 218.50 L 365.90 215.30 L 367.40 212.20 L 369.40 209.50 L 371.80 207.20 L 374.60 205.20 L 377.70 203.80 L 381.00 202.90 L 384.70 202.60 L 388.30 202.90 L 391.70 203.80 L 394.80 205.20 L 397.60 207.20 L 400.00 209.50 L 402.00 212.20 L 403.40 215.30 L 404.40 218.50 L 404.70 222.10 Z" fill="#ffffff" fill-rule="nonzero" filter="url(#椭圆_705-2)" group-id="6,18,55,94,113" id="椭圆_705-6" node-id="289" stroke="none" target-height="39" target-width="40" target-x="364.7" target-y="202.6"></path><path d="M 372.70 246.60 L 394.70 246.60 L 398.40 246.80 L 401.90 247.50 L 405.20 248.70 L 408.30 250.30 L 411.20 252.20 L 413.80 254.50 L 416.10 257.10 L 418.00 259.90 L 419.60 263.10 L 420.70 266.40 L 421.40 269.90 L 421.70 273.60 L 345.70 273.60 L 345.90 269.90 L 346.70 266.40 L 347.80 263.10 L 349.40 259.90 L 351.30 257.10 L 353.60 254.50 L 356.20 252.20 L 359.00 250.30 L 362.20 248.70 L 365.50 247.50 L 369.00 246.80 L 372.70 246.60 Z" fill="#6193f5" fill-rule="nonzero" group-id="6,18,56,95" id="矩形_2252-5" node-id="291" stroke="none" target-height="27" target-width="76" target-x="345.7" target-y="246.6"></path><path d="M 372.70 246.60 L 394.70 246.60 L 398.40 246.80 L 401.90 247.60 L 405.20 248.70 L 408.30 250.30 L 411.20 252.20 L 413.80 254.50 L 416.10 257.10 L 418.00 259.90 L 419.60 263.10 L 420.70 266.40 L 421.40 269.90 L 421.70 273.60 L 345.70 273.60 L 345.90 269.90 L 346.70 266.40 L 347.80 263.10 L 349.40 259.90 L 351.30 257.10 L 353.60 254.50 L 356.20 252.20 L 359.00 250.30 L 362.20 248.70 L 365.50 247.60 L 369.00 246.80 L 372.70 246.60 Z" fill="#ffffff" fill-rule="nonzero" filter="url(#矩形_2252-2)" group-id="6,18,56,96,114" id="矩形_2252-6" node-id="293" stroke="none" target-height="27" target-width="76" target-x="345.7" target-y="246.6"></path><path d="M 273.40 377.10 L 679.40 377.10 L 683.80 377.40 L 688.00 378.00 L 691.90 379.00 L 699.50 382.20 L 706.10 386.70 L 711.90 392.40 L 716.30 399.10 L 719.50 406.60 L 720.60 410.60 L 721.20 414.80 L 721.40 419.10 L 721.40 654.60 L 721.20 658.90 L 720.60 663.10 L 719.50 667.10 L 718.10 670.90 L 716.30 674.60 L 711.90 681.30 L 706.10 687.00 L 699.50 691.50 L 691.90 694.70 L 688.00 695.70 L 683.80 696.30 L 679.40 696.60 L 273.40 696.60 L 269.10 696.30 L 264.90 695.70 L 260.90 694.70 L 253.40 691.50 L 246.70 687.00 L 241.00 681.30 L 236.50 674.60 L 233.30 667.10 L 232.30 663.10 L 231.70 658.90 L 231.40 654.60 L 231.40 419.10 L 231.70 414.80 L 232.30 410.60 L 233.30 406.60 L 236.50 399.10 L 241.00 392.40 L 246.70 386.70 L 253.40 382.20 L 257.10 380.40 L 260.90 379.00 L 264.90 378.00 L 269.10 377.40 L 273.40 377.10 Z" fill="url(#linear-gradient-11)" fill-rule="nonzero" group-id="6,19,57" id="矩形_2230-2" node-id="295" stroke="none" target-height="319.49997" target-width="490.00003" target-x="231.4" target-y="377.1"></path><path d="M 273.40 377.10 L 679.40 377.10 L 683.80 377.40 L 688.00 378.00 L 692.00 379.00 L 699.50 382.20 L 706.10 386.70 L 711.90 392.40 L 716.40 399.10 L 719.60 406.60 L 720.60 410.60 L 721.20 414.80 L 721.40 419.10 L 721.40 654.60 L 721.20 658.90 L 720.60 663.10 L 719.60 667.10 L 718.10 670.90 L 714.30 678.10 L 709.10 684.30 L 702.90 689.40 L 695.80 693.30 L 692.00 694.70 L 688.00 695.70 L 683.80 696.30 L 679.40 696.60 L 273.40 696.60 L 269.10 696.30 L 264.90 695.70 L 260.90 694.70 L 253.40 691.50 L 246.70 687.00 L 241.00 681.30 L 236.50 674.60 L 233.30 667.10 L 232.30 663.10 L 231.70 658.90 L 231.40 654.60 L 231.40 419.10 L 231.70 414.80 L 232.30 410.60 L 233.30 406.60 L 236.50 399.10 L 241.00 392.40 L 246.70 386.70 L 253.40 382.20 L 260.90 379.00 L 264.90 378.00 L 269.10 377.40 L 273.40 377.10 Z" fill="#ffffff" fill-rule="nonzero" filter="url(#矩形_2230)" group-id="6,19,58,97" id="矩形_2230-3" node-id="297" stroke="none" target-height="319.49997" target-width="490.00003" target-x="231.4" target-y="377.1"></path><path d="M 273.40 377.10 L 679.40 377.10 L 683.80 377.40 L 688.00 378.00 L 692.00 379.00 L 699.50 382.20 L 706.10 386.70 L 711.90 392.40 L 716.40 399.10 L 719.60 406.60 L 720.60 410.60 L 721.20 414.80 L 721.40 419.10 L 721.40 654.60 L 721.20 658.90 L 720.60 663.10 L 719.60 667.10 L 718.10 670.90 L 714.30 678.10 L 709.10 684.30 L 702.90 689.40 L 695.80 693.30 L 692.00 694.70 L 688.00 695.70 L 683.80 696.30 L 679.40 696.60 L 273.40 696.60 L 269.10 696.30 L 264.90 695.70 L 260.90 694.70 L 253.40 691.50 L 246.70 687.00 L 241.00 681.30 L 236.50 674.60 L 233.30 667.10 L 232.30 663.10 L 231.70 658.90 L 231.40 654.60 L 231.40 419.10 L 231.70 414.80 L 232.30 410.60 L 233.30 406.60 L 236.50 399.10 L 241.00 392.40 L 246.70 386.70 L 253.40 382.20 L 260.90 379.00 L 264.90 378.00 L 269.10 377.40 L 273.40 377.10 Z" fill="#ffffff" fill-rule="nonzero" filter="url(#矩形_2242)" group-id="6,20,59" id="矩形_2242-2" node-id="299" stroke="none" target-height="319.49997" target-width="490.00003" target-x="231.4" target-y="377.1"></path><path d="M 427.40 420.10 L 525.40 420.10 L 528.60 420.30 L 534.20 421.80 L 539.20 424.80 L 543.20 428.80 L 544.90 431.20 L 547.10 436.60 L 547.70 439.50 L 547.90 442.60 L 547.70 445.70 L 546.20 451.30 L 544.90 453.90 L 541.30 458.50 L 536.80 462.00 L 534.20 463.30 L 528.60 464.90 L 525.40 465.10 L 427.40 465.10 L 424.30 464.90 L 418.70 463.30 L 413.70 460.40 L 409.60 456.40 L 408.00 453.90 L 405.80 448.60 L 405.20 445.70 L 404.90 442.60 L 405.20 439.50 L 405.80 436.60 L 408.00 431.20 L 409.60 428.80 L 413.70 424.80 L 418.70 421.80 L 421.40 420.90 L 427.40 420.10 Z" fill="#0d4fe9" fill-rule="nonzero" group-id="6,21,60" id="矩形_2267-2" node-id="301" stroke="none" target-height="45" target-width="143.00003" target-x="404.9" target-y="420.1"></path><path d="M 427.40 420.10 L 525.40 420.10 L 528.60 420.30 L 534.20 421.80 L 539.20 424.80 L 543.20 428.80 L 544.90 431.20 L 547.10 436.60 L 547.70 439.50 L 547.90 442.60 L 547.70 445.70 L 547.10 448.60 L 544.90 453.90 L 543.20 456.40 L 539.20 460.40 L 534.20 463.30 L 531.50 464.30 L 525.40 465.10 L 427.40 465.10 L 424.30 464.90 L 418.70 463.30 L 413.70 460.40 L 409.60 456.40 L 408.00 453.90 L 405.80 448.60 L 405.20 445.70 L 404.90 442.60 L 405.20 439.50 L 405.80 436.60 L 408.00 431.20 L 409.60 428.80 L 413.70 424.80 L 418.70 421.80 L 421.40 420.90 L 427.40 420.10 Z" fill="#ffffff" fill-rule="nonzero" filter="url(#矩形_2267)" group-id="6,21,61,98" id="矩形_2267-3" node-id="303" stroke="none" target-height="45" target-width="143.00003" target-x="404.9" target-y="420.1"></path><path d="M 81.50 678.80 L 81.90 686.30 L 82.80 691.60 L 84.70 699.50 L 87.60 708.90 L 91.00 718.50 L 99.70 739.40 L 104.70 750.10 L 110.10 760.50 L 115.80 770.40 L 121.70 779.90 L 127.60 788.30 L 131.20 792.70 L 135.70 797.20 L 141.00 801.60 L 147.40 806.10 L 154.80 810.50 L 161.90 814.20 L 170.00 817.80 L 179.20 821.30 L 189.50 824.60 L 201.00 827.80 L 211.90 830.30 L 223.90 832.60 L 237.00 834.70 L 251.40 836.40 L 267.10 837.80 L 281.90 838.80 L 298.00 839.30 L 315.30 839.50 L 333.90 839.20 L 353.90 838.40 L 375.50 837.00 L 398.20 835.00 L 421.90 832.40 L 445.50 829.20 L 469.70 825.50 L 494.60 821.10 L 519.30 816.30 L 544.30 810.90 L 569.50 805.00 L 594.70 798.50 L 619.60 791.60 L 644.50 784.20 L 669.20 776.20 L 693.40 767.90 L 717.10 759.10 L 734.70 752.10 L 768.60 737.50 L 784.90 730.00 L 804.50 720.40 L 822.30 711.20 L 838.40 702.50 L 852.90 694.20 L 867.70 685.20 L 881.00 676.70 L 892.70 668.60 L 903.10 661.00 L 913.70 652.80 L 922.90 645.00 L 930.80 637.70 L 937.60 630.90 L 944.30 623.40 L 949.90 616.40 L 954.50 609.90 L 958.20 603.80 L 961.60 597.30 L 964.20 591.10 L 966.00 585.50 L 967.10 580.10 L 968.10 569.10 L 968.00 562.80 L 967.40 553.30 L 966.10 543.30 L 964.40 533.10 L 959.90 513.00 L 954.70 494.50 L 947.60 473.40 L 944.60 465.80 L 944.10 465.20 L 943.40 465.00 L 940.90 466.00 L 938.00 468.20 L 933.90 472.30 L 924.30 483.20 L 913.40 496.90 L 902.20 511.80 L 874.60 550.60 L 772.60 614.50 L 559.90 699.00 L 316.30 735.20 L 163.00 722.20 L 142.10 706.50 L 129.40 697.50 L 116.00 688.70 L 103.20 681.20 L 97.20 678.20 L 92.30 676.20 L 89.10 675.30 L 86.60 674.90 L 84.70 675.00 L 83.40 675.40 L 82.50 676.20 L 81.90 677.20 L 81.50 678.80 Z" fill="url(#linear-gradient-12)" fill-rule="nonzero" group-id="7" id="路径_1745" node-id="304" stroke="none" target-height="374.5" target-width="886.6" target-x="81.5" target-y="465"></path><g clip-path="url(#clip-path-2)" group-id="8" node-id="1084"><path d="M 225.20 828.00 L 420.60 780.30 L 449.40 773.10 L 487.00 763.10 L 555.00 743.50 L 605.30 727.80 L 631.00 719.30 L 682.20 701.30 L 707.30 691.80 L 731.30 682.20 L 762.10 668.90 L 790.20 655.40 L 803.00 648.70 L 836.20 629.70 L 854.20 620.00 L 871.10 611.40 L 885.00 605.00 L 898.00 599.60 L 908.30 595.70 L 918.00 592.60 L 932.80 588.90 L 947.70 586.00 L 951.60 585.00 L 955.00 583.60 L 956.00 585.70 L 956.70 588.20 L 957.00 591.20 L 956.70 595.70 L 955.90 600.80 L 954.70 605.90 L 951.30 616.00 L 945.50 629.50 L 929.60 642.60 L 921.50 648.90 L 899.70 664.80 L 872.10 683.10 L 856.20 692.90 L 833.80 705.60 L 807.00 719.40 L 775.20 734.60 L 740.90 749.50 L 722.00 757.10 L 702.90 764.30 L 682.30 771.50 L 660.10 778.90 L 637.80 785.80 L 613.60 792.60 L 587.50 799.60 L 561.20 805.90 L 532.80 812.30 L 502.10 818.60 L 479.90 822.60 L 458.70 825.90 L 438.20 828.60 L 417.60 830.80 L 398.20 832.50 L 379.80 833.60 L 361.30 834.40 L 328.40 834.90 L 305.20 834.60 L 285.60 833.80 L 267.30 832.60 L 240.40 830.00 L 225.20 828.00 Z" fill="url(#linear-gradient-13)" fill-rule="nonzero" group-id="8,22" id="路径_1748" node-id="306" stroke="none" target-height="251.30005" target-width="731.8" target-x="225.2" target-y="583.6"></path></g><path d="M 449.30 724.10 L 426.80 728.00 L 404.30 731.30 L 381.70 734.30 L 359.00 736.80 L 336.30 738.80 L 313.60 740.40 L 292.60 741.40 L 272.70 741.80 L 253.80 741.70 L 234.90 741.10 L 217.30 740.10 L 200.90 738.50 L 176.60 735.10 L 155.80 730.90 L 145.60 728.20 L 136.30 725.20 L 128.00 722.20 L 120.40 718.90 L 114.00 715.70 L 103.30 709.20 L 94.90 702.30 L 91.20 698.40 L 88.00 694.40 L 85.30 690.40 L 83.20 686.20 L 81.50 681.90 L 80.40 677.80 L 79.40 669.60 L 79.40 665.40 L 143.80 647.40 L 143.30 651.60 L 143.40 655.80 L 144.00 660.00 L 145.10 664.10 L 146.50 667.70 L 148.30 671.10 L 150.50 674.50 L 153.20 677.80 L 156.30 681.10 L 160.50 684.60 L 165.40 688.10 L 171.20 691.50 L 177.80 694.70 L 191.20 699.90 L 199.00 702.30 L 207.70 704.50 L 219.10 706.90 L 231.80 709.00 L 245.80 710.70 L 259.70 711.90 L 274.70 712.70 L 290.60 713.10 L 306.60 713.10 L 323.50 712.70 L 341.30 711.80 L 364.50 710.10 L 387.60 707.80 L 410.60 705.00 L 433.60 701.70 L 456.50 697.90 L 479.60 693.50 L 503.00 688.70 L 526.50 683.40 L 550.00 677.60 L 573.80 671.20 L 597.40 664.40 L 620.90 657.20 L 644.30 649.40 L 667.50 641.20 L 687.50 633.60 L 707.30 625.60 L 726.80 617.10 L 746.20 608.10 L 765.30 598.60 L 779.70 591.00 L 792.90 583.60 L 805.10 576.20 L 817.10 568.50 L 827.90 560.90 L 844.90 547.70 L 851.50 542.00 L 862.50 531.10 L 867.50 525.40 L 871.80 519.90 L 875.40 514.70 L 878.40 509.70 L 881.30 503.90 L 883.30 498.40 L 884.60 493.30 L 885.20 488.40 L 885.30 483.70 L 884.70 479.10 L 883.60 474.70 L 881.90 470.40 L 879.50 466.30 L 876.60 462.30 L 872.90 458.30 L 868.50 454.50 L 863.20 450.80 L 857.00 447.10 L 918.00 430.00 L 922.70 433.10 L 927.10 436.40 L 931.20 440.10 L 935.10 444.10 L 938.10 447.80 L 940.70 451.80 L 942.90 456.00 L 944.70 460.50 L 945.90 465.30 L 946.60 470.10 L 946.80 475.10 L 946.40 480.30 L 945.40 485.70 L 943.70 491.30 L 941.40 497.30 L 938.30 503.50 L 934.80 509.50 L 930.50 515.70 L 925.40 522.20 L 919.50 529.00 L 906.60 541.80 L 890.40 555.60 L 879.00 564.30 L 866.40 573.20 L 852.50 582.30 L 838.30 590.90 L 822.90 599.70 L 806.20 608.70 L 789.20 617.30 L 771.20 625.90 L 752.30 634.40 L 733.20 642.60 L 713.20 650.60 L 692.40 658.60 L 665.50 668.20 L 638.30 677.20 L 611.00 685.70 L 583.60 693.70 L 555.90 701.00 L 529.10 707.60 L 502.40 713.70 L 475.70 719.20 L 449.30 724.10 Z" fill="url(#linear-gradient-14)" fill-rule="nonzero" group-id="9" id="减去_13" node-id="307" stroke="none" target-height="311.8" target-width="867.39996" target-x="79.4" target-y="430"></path><path d="M 718.30 512.00 L 694.70 511.60 L 671.10 510.70 L 647.50 509.20 L 624.00 507.30 L 578.90 502.10 L 556.90 499.10 L 512.30 491.70 L 467.20 482.90 L 425.70 473.40 L 385.00 462.90 L 346.40 451.70 L 309.30 439.70 L 274.60 427.20 L 241.90 414.20 L 211.70 400.80 L 184.10 387.00 L 172.20 380.60 L 160.40 373.80 L 148.90 366.70 L 137.60 359.20 L 127.40 351.80 L 118.50 344.70 L 110.70 337.90 L 104.00 331.30 L 98.50 325.40 L 94.00 319.80 L 90.20 314.40 L 87.10 309.30 L 84.70 304.40 L 83.00 300.20 L 81.80 295.90 L 80.90 291.50 L 80.60 287.40 L 80.70 283.30 L 81.30 279.20 L 83.60 272.10 L 87.30 265.70 L 90.70 261.40 L 94.60 257.50 L 98.90 254.00 L 103.50 250.80 L 108.70 247.60 L 114.60 244.50 L 121.40 241.50 L 128.90 238.60 L 145.40 233.50 L 154.10 231.30 L 173.00 227.60 L 193.90 224.70 L 205.90 223.50 L 232.00 221.70 L 232.00 229.90 L 207.20 231.40 L 181.30 234.40 L 168.10 236.60 L 151.50 240.30 L 135.00 245.30 L 127.10 248.40 L 120.10 251.60 L 114.20 255.00 L 109.10 258.40 L 104.80 262.00 L 101.20 265.60 L 98.30 269.20 L 96.10 272.90 L 94.40 276.80 L 93.30 280.70 L 92.70 284.90 L 92.70 289.30 L 93.30 293.80 L 94.60 298.60 L 96.60 303.60 L 99.00 308.10 L 102.00 312.90 L 105.80 317.90 L 110.30 323.20 L 115.80 328.80 L 122.40 334.90 L 130.00 341.20 L 138.70 347.90 L 148.70 354.80 L 159.80 361.80 L 182.50 374.90 L 194.10 380.90 L 221.50 394.10 L 236.40 400.70 L 252.10 407.20 L 273.10 415.50 L 295.20 423.60 L 318.50 431.60 L 341.90 439.10 L 366.30 446.30 L 391.50 453.40 L 416.90 459.90 L 442.90 466.20 L 469.50 472.10 L 492.50 476.80 L 537.80 485.00 L 560.50 488.60 L 604.50 494.40 L 625.70 496.60 L 665.80 499.90 L 685.60 500.90 L 722.60 501.70 L 739.10 501.60 L 755.50 501.00 L 772.00 499.90 L 788.40 498.40 L 803.00 496.50 L 824.90 492.60 L 840.20 488.70 L 849.30 485.70 L 857.30 482.60 L 864.20 479.30 L 870.20 476.00 L 875.30 472.60 L 879.60 469.00 L 883.20 465.40 L 886.10 461.70 L 888.30 458.00 L 890.00 454.20 L 891.10 450.30 L 891.70 446.00 L 891.70 441.70 L 891.10 437.10 L 889.80 432.40 L 887.80 427.40 L 885.40 422.80 L 882.40 418.10 L 878.60 413.00 L 874.00 407.70 L 868.60 402.10 L 862.00 396.10 L 854.40 389.70 L 845.70 383.10 L 835.70 376.20 L 822.90 368.10 L 809.90 360.50 L 796.60 353.30 L 800.20 346.90 L 800.00 346.00 L 811.90 352.40 L 823.60 359.20 L 835.10 366.30 L 846.40 373.80 L 856.60 381.20 L 865.50 388.30 L 873.30 395.10 L 880.00 401.60 L 885.40 407.50 L 890.00 413.10 L 893.80 418.50 L 896.90 423.60 L 899.30 428.50 L 901.00 432.70 L 902.20 437.00 L 903.10 441.40 L 903.40 445.50 L 903.30 449.60 L 902.70 453.70 L 901.70 457.30 L 898.70 464.00 L 896.70 467.20 L 893.20 471.50 L 889.40 475.40 L 885.10 478.90 L 880.50 482.20 L 875.30 485.30 L 869.30 488.40 L 862.60 491.40 L 855.10 494.30 L 838.60 499.40 L 820.50 503.60 L 800.90 506.80 L 790.00 508.20 L 772.10 509.90 L 754.20 511.10 L 736.30 511.80 L 718.30 512.00 Z" fill="url(#linear-gradient-6)" fill-rule="nonzero" group-id="10,23" id="减去_17-2" node-id="309" stroke="none" target-height="290.3" target-width="822.80005" target-x="80.6" target-y="221.7"></path><path d="M 718.30 512.00 L 694.70 511.60 L 671.10 510.70 L 647.50 509.20 L 624.00 507.30 L 578.90 502.10 L 556.90 499.10 L 512.40 491.70 L 467.20 482.90 L 425.70 473.40 L 385.00 462.90 L 346.40 451.70 L 309.30 439.70 L 274.60 427.30 L 241.90 414.20 L 211.70 400.80 L 184.10 387.00 L 172.20 380.60 L 160.40 373.80 L 148.90 366.70 L 137.60 359.20 L 127.40 351.80 L 118.50 344.70 L 110.70 337.90 L 104.00 331.30 L 98.50 325.40 L 94.00 319.80 L 90.20 314.40 L 87.10 309.30 L 84.70 304.40 L 83.00 300.20 L 81.80 295.90 L 80.90 291.50 L 80.60 287.40 L 80.70 283.30 L 81.30 279.20 L 83.60 272.10 L 87.30 265.70 L 90.70 261.40 L 94.60 257.50 L 98.90 254.00 L 103.50 250.80 L 108.70 247.60 L 114.60 244.50 L 121.40 241.50 L 128.90 238.60 L 145.40 233.50 L 154.10 231.30 L 173.00 227.60 L 193.90 224.70 L 205.90 223.50 L 232.00 221.70 L 232.00 229.90 L 207.20 231.40 L 181.30 234.40 L 168.10 236.60 L 151.50 240.30 L 135.10 245.30 L 127.10 248.40 L 120.20 251.60 L 114.20 255.00 L 109.10 258.40 L 104.80 262.00 L 101.20 265.60 L 98.30 269.20 L 96.10 273.00 L 94.40 276.80 L 93.30 280.70 L 92.70 284.90 L 92.70 289.30 L 93.30 293.80 L 94.60 298.60 L 96.60 303.60 L 99.00 308.10 L 102.00 312.90 L 105.80 317.90 L 110.30 323.20 L 115.80 328.90 L 122.40 334.90 L 130.00 341.20 L 138.70 347.90 L 148.70 354.80 L 159.80 361.80 L 182.50 374.90 L 194.10 380.90 L 221.50 394.10 L 236.40 400.70 L 252.10 407.20 L 273.10 415.50 L 295.20 423.60 L 318.50 431.60 L 341.90 439.10 L 366.30 446.30 L 391.50 453.40 L 416.90 460.00 L 442.90 466.20 L 469.50 472.10 L 492.50 476.80 L 537.80 485.00 L 560.50 488.60 L 604.50 494.40 L 625.70 496.60 L 665.80 499.90 L 685.60 500.90 L 722.60 501.70 L 739.10 501.60 L 755.50 501.00 L 772.00 499.90 L 788.40 498.40 L 803.00 496.60 L 824.90 492.60 L 840.20 488.70 L 849.30 485.70 L 857.30 482.60 L 864.20 479.30 L 870.20 476.00 L 875.30 472.60 L 879.60 469.00 L 883.20 465.40 L 886.10 461.70 L 888.30 458.00 L 890.00 454.20 L 891.10 450.30 L 891.70 446.00 L 891.70 441.70 L 891.10 437.10 L 889.80 432.40 L 887.80 427.40 L 885.40 422.90 L 882.40 418.10 L 878.60 413.10 L 874.00 407.70 L 868.60 402.10 L 862.00 396.10 L 854.40 389.70 L 845.70 383.10 L 835.70 376.20 L 822.90 368.10 L 809.90 360.50 L 796.60 353.30 L 800.20 346.90 L 800.00 346.00 L 811.90 352.40 L 823.60 359.20 L 835.10 366.30 L 846.40 373.80 L 856.60 381.20 L 865.50 388.30 L 873.30 395.10 L 880.00 401.60 L 885.40 407.50 L 890.00 413.10 L 893.80 418.50 L 896.90 423.60 L 899.30 428.50 L 901.00 432.70 L 902.20 437.00 L 903.10 441.40 L 903.40 445.50 L 903.30 449.60 L 902.70 453.70 L 901.70 457.30 L 898.70 464.00 L 896.70 467.20 L 893.20 471.50 L 889.40 475.40 L 885.10 478.90 L 880.50 482.20 L 875.30 485.30 L 869.30 488.40 L 862.60 491.40 L 855.10 494.30 L 838.60 499.40 L 820.50 503.60 L 800.90 506.80 L 790.00 508.20 L 772.10 509.90 L 754.20 511.10 L 736.30 511.80 L 718.30 512.00 Z" fill="#ffffff" fill-rule="nonzero" filter="url(#减去_17)" group-id="10,24,62" id="减去_17-3" node-id="311" stroke="none" target-height="290.3" target-width="822.80005" target-x="80.6" target-y="221.7"></path><path d="M 218.00 363.10 L 217.70 367.90 L 217.00 372.50 L 215.90 376.90 L 214.30 381.20 L 212.40 385.30 L 210.00 389.10 L 207.40 392.70 L 204.40 396.00 L 201.10 399.00 L 197.50 401.60 L 193.70 403.90 L 189.60 405.90 L 185.40 407.50 L 180.90 408.60 L 176.30 409.30 L 171.50 409.60 L 166.70 409.30 L 162.10 408.60 L 157.60 407.50 L 153.40 405.90 L 149.30 403.90 L 145.50 401.60 L 141.90 399.00 L 138.60 396.00 L 135.60 392.70 L 133.00 389.10 L 130.60 385.30 L 128.70 381.20 L 127.10 376.90 L 126.00 372.50 L 125.30 367.90 L 125.00 363.10 L 125.30 358.30 L 126.00 353.60 L 127.10 349.20 L 128.70 345.00 L 130.60 340.90 L 133.00 337.10 L 135.60 333.50 L 138.60 330.20 L 141.90 327.20 L 145.50 324.50 L 149.30 322.20 L 153.40 320.20 L 157.60 318.70 L 162.10 317.50 L 166.70 316.80 L 171.50 316.60 L 176.30 316.80 L 180.90 317.50 L 185.40 318.70 L 189.60 320.20 L 193.70 322.20 L 197.50 324.50 L 201.10 327.20 L 204.40 330.20 L 207.40 333.50 L 210.00 337.10 L 212.40 340.90 L 214.30 345.00 L 215.90 349.20 L 217.00 353.60 L 217.70 358.30 L 218.00 363.10 Z" fill="url(#linear-gradient-16)" fill-rule="nonzero" group-id="11,25" id="椭圆_722-2" node-id="313" stroke="none" target-height="93" target-width="93" target-x="125" target-y="316.6"></path><path d="M 218.00 363.10 L 217.70 367.90 L 217.00 372.50 L 215.90 376.90 L 214.30 381.20 L 212.40 385.30 L 210.00 389.10 L 207.40 392.60 L 204.40 396.00 L 201.10 399.00 L 197.50 401.60 L 193.70 403.90 L 189.60 405.90 L 185.40 407.50 L 180.90 408.60 L 176.30 409.30 L 171.50 409.60 L 166.70 409.30 L 162.10 408.60 L 157.60 407.50 L 153.40 405.90 L 149.30 403.90 L 145.50 401.60 L 141.90 399.00 L 138.60 396.00 L 135.60 392.60 L 133.00 389.10 L 130.60 385.30 L 128.70 381.20 L 127.10 376.90 L 126.00 372.50 L 125.30 367.90 L 125.00 363.10 L 125.30 358.30 L 126.00 353.60 L 127.10 349.20 L 128.70 345.00 L 130.60 340.90 L 133.00 337.10 L 135.60 333.50 L 138.60 330.20 L 141.90 327.20 L 145.50 324.50 L 149.30 322.20 L 153.40 320.20 L 157.60 318.70 L 162.10 317.50 L 166.70 316.80 L 171.50 316.60 L 176.30 316.80 L 180.90 317.50 L 185.40 318.70 L 189.60 320.20 L 193.70 322.20 L 197.50 324.50 L 201.10 327.20 L 204.40 330.20 L 207.40 333.50 L 210.00 337.10 L 212.40 340.90 L 214.30 345.00 L 215.90 349.20 L 217.00 353.60 L 217.70 358.30 L 218.00 363.10 Z" fill="#ffffff" fill-rule="nonzero" filter="url(#椭圆_722)" group-id="11,26,63" id="椭圆_722-3" node-id="315" stroke="none" target-height="93" target-width="93" target-x="125" target-y="316.6"></path><path d="M 832.00 608.10 L 831.00 606.70 L 828.30 604.50 L 825.20 603.40 L 823.40 603.30 L 820.00 603.80 L 817.10 605.50 L 815.80 606.70 L 780.80 663.80 L 780.20 664.20 L 716.80 679.30 L 715.10 679.90 L 712.20 681.70 L 710.20 684.40 L 709.50 686.00 L 709.10 687.70 L 709.20 691.10 L 710.40 694.30 L 711.40 695.70 L 753.90 745.30 L 754.10 745.90 L 748.90 810.90 L 749.20 814.40 L 750.60 817.50 L 753.00 819.90 L 754.50 820.80 L 757.80 821.80 L 761.10 821.60 L 823.10 796.00 L 823.70 796.00 L 885.70 821.60 L 889.10 821.80 L 892.30 820.80 L 893.80 819.90 L 896.20 817.50 L 897.60 814.40 L 897.90 811.00 L 892.70 745.90 L 892.90 745.30 L 935.40 695.70 L 937.10 692.70 L 937.80 689.40 L 937.70 687.70 L 937.30 686.00 L 935.70 683.00 L 933.20 680.70 L 931.70 679.90 L 866.60 664.20 L 866.00 663.80 Z" fill="#ffd677" fill-rule="nonzero" group-id="12,27" id="路径_1759" node-id="317" stroke="none" target-height="218.5" target-width="228.70001" target-x="709.1" target-y="603.3"></path><path d="M 823.50 603.20 L 823.50 722.90 L 866.70 664.20 L 866.00 663.80 L 832.00 608.10 L 831.00 606.70 L 828.40 604.60 L 825.20 603.40 L 823.50 603.20 Z" fill="#ffd677" fill-rule="nonzero" group-id="12,28" id="路径_1760" node-id="318" stroke="none" target-height="119.70001" target-width="43.200012" target-x="823.5" target-y="603.2"></path><path d="M 892.90 745.30 L 935.40 695.70 L 936.70 693.60 L 937.60 691.40 L 937.80 689.00 L 937.50 686.50 L 823.50 722.90 Z" fill="#ffe387" fill-rule="nonzero" group-id="12,29" id="路径_1761" node-id="319" stroke="none" target-height="58.799988" target-width="114.29999" target-x="823.5" target-y="686.5"></path><path d="M 893.70 820.00 L 895.10 818.80 L 897.00 816.00 L 897.90 812.70 L 897.90 811.00 L 892.70 745.90 L 892.90 745.30 L 823.50 722.90 Z" fill="#ffbf51" fill-rule="nonzero" group-id="12,30" id="路径_1762" node-id="320" stroke="none" target-height="97.099976" target-width="74.400024" target-x="823.5" target-y="722.9"></path><path d="M 823.30 796.00 L 884.00 821.10 L 886.50 821.80 L 889.00 821.80 L 891.40 821.20 L 893.70 820.00 L 823.50 722.90 Z" fill="#ffc97d" fill-rule="nonzero" group-id="12,31" id="路径_1763" node-id="321" stroke="none" target-height="98.89996" target-width="70.400024" target-x="823.3" target-y="722.9"></path><path d="M 753.20 820.00 L 755.40 821.20 L 757.90 821.80 L 760.40 821.80 L 762.80 821.10 L 823.30 796.00 L 823.50 722.90 Z" fill="#ffab5b" fill-rule="nonzero" group-id="12,32" id="路径_1764" node-id="322" stroke="none" target-height="98.89996" target-width="70.29999" target-x="753.2" target-y="722.9"></path><path d="M 754.10 745.60 L 748.90 811.00 L 748.90 812.70 L 749.80 816.00 L 751.70 818.80 L 753.00 819.90 L 823.50 722.90 Z" fill="#ffc76d" fill-rule="nonzero" group-id="12,33" id="路径_1765" node-id="323" stroke="none" target-height="97" target-width="74.599976" target-x="748.9" target-y="722.9"></path><path d="M 709.60 685.70 L 709.10 687.40 L 709.20 690.90 L 710.40 694.20 L 711.40 695.70 L 754.10 745.60 L 823.50 722.90 Z" fill="#ffbe51" fill-rule="nonzero" group-id="12,34" id="路径_1766" node-id="324" stroke="none" target-height="59.899963" target-width="114.400024" target-x="709.1" target-y="685.7"></path><path d="M 780.70 663.90 L 716.80 679.30 L 714.40 680.20 L 712.40 681.60 L 710.80 683.40 L 709.60 685.70 L 823.50 722.90 Z" fill="#ffd684" fill-rule="nonzero" group-id="12,35" id="路径_1767" node-id="325" stroke="none" target-height="59" target-width="113.900024" target-x="709.6" target-y="663.9"></path><path d="M 780.70 663.90 L 823.50 722.90 L 823.50 603.20 L 821.70 603.40 L 818.50 604.50 L 815.80 606.70 L 814.80 608.10 L 780.70 663.90 Z" fill="#ffab5b" fill-rule="nonzero" group-id="12,36" id="路径_1768" node-id="326" stroke="none" target-height="119.70001" target-width="42.799988" target-x="780.7" target-y="603.2"></path><path d="M 937.50 686.50 L 936.80 684.80 L 934.80 681.90 L 931.80 679.90 L 930.10 679.30 L 866.70 664.20 L 823.50 722.90 Z" fill="#fff9e7" fill-rule="nonzero" group-id="12,37" id="路径_1769" node-id="327" stroke="none" target-height="58.700012" target-width="114" target-x="823.5" target-y="664.2"></path></g></svg>