<?xml version="1.0" standalone="no"?><!DOCTYPE svg PUBLIC "-//W3C//DTD SVG 1.1//EN" "http://www.w3.org/Graphics/SVG/1.1/DTD/svg11.dtd"><svg t="1741144906810" class="icon" viewBox="0 0 1024 1024" version="1.1" xmlns="http://www.w3.org/2000/svg" p-id="1487" xmlns:xlink="http://www.w3.org/1999/xlink" width="512" height="512"><path d="M702.0032 897.024h-462.848a107.52 107.52 0 0 1-107.52-107.52V257.6896a120.7296 120.7296 0 0 1 120.5248-120.7296h329.1136a120.7296 120.7296 0 0 1 120.7296 120.7296z" fill="#B3F4EF" p-id="1488"></path><path d="M511.3344 144.3328s96.1024 41.8304 96.1024 119.8592v625.3568h101.7856V271.0016c0-75.776-56.5248-135.7312-197.888-126.6688z" fill="#94E0DE" p-id="1489"></path><path d="M311.7568 147.712s-89.3952 23.7568-89.3952 113.1008v521.2672c0 41.8816 13.3632 99.5328 73.984 111.9744-78.1312 0-170.5984 18.0736-170.5984-116.48V249.4976c0-56.5248 60.6208-130.048 186.0096-101.7856z" fill="#E9FFFF" p-id="1490"></path><path d="M798.72 897.024h-96.256V404.0704h119.1424a77.5168 77.5168 0 0 1 77.4656 77.4656v315.0848A100.4032 100.4032 0 0 1 798.72 897.024z" fill="#FFD16C" p-id="1491"></path><path d="M770.048 412.3136S828.8768 419.84 828.8768 471.04v315.0848c0 35.4304-3.0208 87.4496-73.1136 99.5328 82.8928 0 135.68-9.7792 135.68-110.7968V461.312c0-38.4512-66.3552-58.0096-121.3952-48.9984z" fill="#FFC50B" p-id="1492"></path><path d="M821.7088 378.4704h-94.1056V257.6896a146.4832 146.4832 0 0 0-146.3296-146.3296H252.16a146.4832 146.4832 0 0 0-146.3296 146.3296v531.6096a133.4784 133.4784 0 0 0 133.12 133.12H798.72a126.1568 126.1568 0 0 0 125.952-126.0032v-314.88a103.168 103.168 0 0 0-102.9632-103.0656z m-145.3056 492.9536h-437.248a82.2272 82.2272 0 0 1-81.92-81.92V257.6896a95.232 95.232 0 0 1 94.9248-95.1296h329.1136a95.232 95.232 0 0 1 95.1296 95.1296z m197.1712-74.8032A74.8544 74.8544 0 0 1 798.72 871.424h-70.656V429.6704h93.5424a51.968 51.968 0 0 1 51.8656 51.8656z" fill="#434A54" p-id="1493"></path><path d="M551.68 453.9392H293.9392a25.6 25.6 0 0 1 0-51.2h257.7408a25.6 25.6 0 0 1 0 51.2zM551.68 670.72H293.9392a25.6 25.6 0 0 1 0-51.2h257.7408a25.6 25.6 0 0 1 0 51.2z" fill="#434A54" p-id="1494"></path></svg>